<svg width="80" height="80" viewBox="0 0 86 85" fill="none" xmlns="http://www.w3.org/2000/svg">
<path d="M59.7382 3.88901L54.8347 3.88907L59.9341 9.42264L59.9341 12.057L49.4313 12.0571L49.4313 8.97253L54.53 8.97247L49.4312 3.4389L49.4312 0.801909L59.7381 0.801787L59.7382 3.88901ZM47.3487 3.88916L42.4453 3.88922L47.5447 9.42279L47.5447 12.0571L37.0413 12.0573L37.0412 8.97268L42.1406 8.97262L37.0412 3.43905L37.0411 0.802055L47.3487 0.801933L47.3487 3.88916ZM35.0809 4.01548L29.7896 4.01554L29.7897 8.84394L35.0809 8.84388L35.0809 12.0573L26.0284 12.0574L26.0283 0.802185L35.0808 0.802078L35.0809 4.01548Z" fill="#131313"/>
<path d="M18.8187 77.5006L13.4412 17.1951L72.5208 17.1944L67.1399 77.49L42.9455 84.1987L18.8187 77.5006V77.5006Z" fill="#1572B6"/>
<path d="M42.9826 79.0719L62.5318 73.6516L67.1306 22.1263L42.9819 22.1266L42.9826 79.0719Z" fill="#33A9DC"/>
<path d="M42.9816 43.9747L52.7686 43.9746L53.4452 36.401L42.9815 36.4011L42.9814 29.0048L61.528 29.0045L61.3508 30.9888L59.5335 51.3702L42.9817 51.3704L42.9816 43.9747Z" fill="white"/>
<path d="M43.0264 63.1832L42.9939 63.1925L34.7568 60.968L34.2295 55.0691L26.8059 55.0692L27.8426 66.6823L42.9926 70.8877L43.0271 70.8777L43.0271 63.1832L43.0264 63.1832Z" fill="#EBEBEB"/>
<path d="M52.1404 51.0573L51.2493 60.9625L43.0004 63.1892L43.0005 70.8843L58.163 66.682L58.2745 65.4322L59.5613 51.0572L52.1404 51.0573Z" fill="white"/>
<path d="M43.0073 29.0047L43.0073 36.4004L25.1421 36.4006L24.9933 34.7385L24.6566 30.9892L24.4792 29.0049L43.0073 29.0047ZM42.9815 43.9754L42.9816 51.3717L34.8488 51.3718L34.7007 49.7096L34.3633 45.9597L34.186 43.9755L42.9815 43.9754Z" fill="#EBEBEB"/>
</svg>
