<svg width="80" height="80" viewBox="0 0 86 86" fill="none" xmlns="http://www.w3.org/2000/svg">
<path d="M30.2637 85.7325C38.1661 85.7324 44.541 79.3573 44.5409 71.455L44.5408 57.1776L30.2634 57.1778C22.3611 57.1779 15.9862 63.553 15.9862 71.4553C15.9863 79.3577 22.3614 85.7326 30.2637 85.7325Z" fill="#0ACF83"/>
<path d="M15.9858 42.9006C15.9857 34.9983 22.3606 28.6232 30.2629 28.6231L44.5403 28.623L44.5406 57.1776L30.2633 57.1778C22.3609 57.1779 15.9858 50.803 15.9858 42.9006Z" fill="#A259FF"/>
<path d="M15.9855 14.3459C15.9854 6.4436 22.3604 0.0685282 30.2627 0.0684348L44.54 0.0682662L44.5404 28.623L30.263 28.6231C22.3607 28.6232 15.9856 22.2483 15.9855 14.3459Z" fill="#F24E1E"/>
<path d="M44.54 0.0682373L58.8174 0.0680686C66.7197 0.0679753 73.0948 6.4429 73.0949 14.3452C73.095 22.2476 66.72 28.6227 58.8177 28.6228L44.5404 28.6229L44.54 0.0682373Z" fill="#FF7262"/>
<path d="M73.0951 42.8999C73.0952 50.8023 66.7203 57.1774 58.8179 57.1774C50.9156 57.1775 44.5405 50.8026 44.5404 42.9003C44.5404 34.9979 50.9153 28.6228 58.8176 28.6228C66.72 28.6227 73.095 34.9976 73.0951 42.8999Z" fill="#1ABCFE"/>
</svg>
