<svg width="80" height="80" viewBox="0 0 86 86" fill="none" xmlns="http://www.w3.org/2000/svg">
<path d="M19.1321 78.1564L13.7903 18.2507L72.4788 18.2501L67.1332 78.1466L43.0995 84.8094L19.1321 78.1564Z" fill="#E44D26"/>
<path d="M43.1352 79.7167L62.555 74.3323L67.1238 23.1489L43.1345 23.1492L43.1352 79.7167Z" fill="#F16529"/>
<path d="M43.1348 45.3674L33.4123 45.3675L32.7415 37.843L43.1347 37.8429L43.1346 30.4957L24.7115 30.4959L24.8869 32.4675L26.6934 52.7141L43.1349 52.7139L43.1348 45.3674ZM43.1351 64.4479L43.1025 64.4565L34.9206 62.2466L34.3972 56.3876L27.0215 56.3877L28.0509 67.9238L43.1013 72.1019L43.1352 72.0919L43.1351 64.4479Z" fill="#EBEBEB"/>
<path d="M19.2506 1.97052L22.984 1.97048L22.984 5.66001L26.4 5.65998L26.3999 1.97045L30.1339 1.97041L30.1341 13.1413L26.4 13.1413L26.4 9.40064L22.9847 9.40068L22.9848 13.1413L19.2507 13.1414L19.2506 1.97052V1.97052ZM35.0434 5.67516L31.7563 5.67519L31.7562 1.97039L42.0658 1.97028L42.0659 5.67509L38.7774 5.67512L38.7775 13.1412L35.0435 13.1412L35.0434 5.67516V5.67516ZM43.7021 1.97026L47.5948 1.97022L49.9901 5.89547L52.3827 1.97017L56.2774 1.97013L56.2775 13.141L52.5581 13.141L52.5581 7.60408L49.9902 11.5759L49.9251 11.5759L47.3551 7.60413L47.3552 13.1411L43.7015 13.1411L43.7014 1.97026L43.7021 1.97026ZM58.1361 1.97011L61.8708 1.97007L61.8709 9.44875L67.1216 9.44869L67.1217 13.1415L58.1363 13.1416L58.1361 1.97011V1.97011Z" fill="black"/>
<path d="M43.1096 45.3674L43.1097 52.7139L52.1568 52.7138L51.3043 62.2425L43.1098 64.4546L43.1099 72.0979L58.1721 67.9235L58.2823 66.6817L60.0086 47.3395L60.1879 45.3672L58.2077 45.3672L43.1096 45.3674ZM43.1094 30.4957L43.1095 37.8429L60.8565 37.8427L61.0033 36.1912L61.3386 32.4671L61.5145 30.4955L43.1094 30.4957Z" fill="white"/>
</svg>

