<svg width="80" height="80" viewBox="0 0 85 86" fill="none" xmlns="http://www.w3.org/2000/svg">
<path d="M1.32812 1.5116L1.32909 84.5194L84.3369 84.5185L84.3359 1.51066L1.32812 1.5116ZM45.2361 72.2424C44.0109 74.732 41.6721 76.3676 38.9621 77.1572C34.7978 78.1135 30.8147 77.5683 27.8516 75.79C25.8687 74.5735 24.3201 72.7008 23.2689 70.5433L29.5907 66.6717C29.6458 66.695 29.8119 66.9951 30.0337 67.383C30.8398 68.7336 31.5351 69.6899 32.9018 70.3612C34.2445 70.8194 37.1923 71.1122 38.3305 68.7495C39.0257 67.5475 38.8045 63.684 38.8045 59.4095C38.8038 52.6925 38.8349 46.0034 38.8348 39.3627L46.6103 39.3626C46.6104 46.6673 46.6503 53.5855 46.6106 60.7136C46.6272 65.0831 47.0064 68.9785 45.2361 72.2424ZM77.4922 70.0453C74.7896 79.2904 59.7207 79.5907 53.6989 73.4828C52.4266 72.0451 51.629 71.294 50.87 69.6346C54.0701 67.7937 54.0701 67.7937 57.1838 65.9921C58.8752 68.5919 60.4391 70.0216 63.2528 70.6066C67.0698 71.0727 70.91 69.7612 70.0487 65.7071C69.1635 62.3961 62.2326 61.5906 57.5158 58.0499C52.7272 54.8339 51.6048 47.0192 55.54 42.554C56.8515 40.9025 59.0881 39.67 61.4348 39.0776L63.8839 38.7608C68.5861 38.6658 71.5253 39.9076 73.6829 42.3168C74.2832 42.925 74.7733 43.5811 75.6897 45.0029C73.1849 46.5993 73.1928 46.584 69.6049 48.907C68.8386 47.2561 67.5669 46.2202 66.2228 45.77C64.1363 45.1378 61.5053 45.8251 60.9595 48.0298C60.7702 48.7092 60.8094 49.3414 61.1103 50.4636C61.9556 52.3914 64.7925 53.2294 67.3372 54.3988C74.6625 57.3697 77.1362 60.5552 77.7445 64.347C78.3303 67.6115 77.6031 69.7292 77.4922 70.0453V70.0453Z" fill="#F0DB4F"/>
</svg>
