<svg width="80" height="80" viewBox="0 0 86 86" fill="none" xmlns="http://www.w3.org/2000/svg">
<path fill-rule="evenodd" clip-rule="evenodd" d="M58.5247 67.2047C58.6369 66.9888 58.7445 66.7983 58.8361 66.601C58.8939 66.4749 58.9829 66.4496 59.1084 66.4529C59.8608 66.4742 60.6131 66.4974 61.3662 66.5047C62.0057 66.5113 62.6465 66.4994 63.2866 66.4921C64.0078 66.4834 64.729 66.4456 65.4495 66.4661C66.4091 66.494 67.3441 66.6819 68.212 67.1089C69.2486 67.6196 70.0329 68.3972 70.5675 69.4218C70.9035 70.0715 71.1133 70.7791 71.1857 71.507C71.3 72.5748 71.2249 73.618 70.8863 74.6394C70.4666 75.9051 69.6697 76.8739 68.5627 77.5998C67.7108 78.1583 66.7764 78.4883 65.775 78.6769C64.7152 78.8768 63.652 78.8124 62.5889 78.8157C61.4228 78.8204 60.2573 78.7952 59.0912 78.7819C58.8874 78.7799 58.8582 78.7414 58.9119 78.5468L58.9617 78.3675C59.0753 78.0103 59.1364 77.9943 59.499 77.9346C59.756 77.8941 60.0018 77.8007 60.2208 77.6603C60.343 77.5793 60.3934 77.3681 60.4413 77.2054C60.4824 77.0633 60.4844 76.9073 60.4857 76.7572C60.5023 74.4828 60.5196 72.209 60.5288 69.9359C60.5314 69.361 60.517 68.7861 60.4857 68.212C60.4631 67.8103 60.2486 67.5353 59.7704 67.4404C59.3986 67.3667 59.024 67.3096 58.6502 67.2438L58.5247 67.2047V67.2047ZM69.2002 72.7116C69.1497 72.2587 69.1251 71.8018 69.0441 71.3556C68.8502 70.2845 68.3814 69.3515 67.5579 68.6203C66.2265 67.439 64.6234 67.257 62.9433 67.3979C62.5608 67.4297 62.4785 67.5606 62.4725 67.9537C62.4632 68.5115 62.4539 69.0693 62.4533 69.6271C62.4507 71.3962 62.4507 73.1652 62.4533 74.9343C62.454 75.4377 62.4593 75.941 62.4739 76.4431C62.4899 76.957 62.6765 77.392 63.1799 77.5912C63.9734 77.9053 64.8081 77.9425 65.6409 77.8143C66.971 77.6104 67.9013 76.8354 68.5255 75.674C69.0196 74.7523 69.159 73.7462 69.2002 72.7116V72.7116ZM72.4336 78.7353C72.4176 78.4597 72.5305 78.2319 72.67 78.0227C72.7078 77.9663 72.838 77.9689 72.9276 77.951L73.6886 77.8003C73.9576 77.7432 74.099 77.5625 74.1369 77.2989C74.1621 77.1249 74.186 76.9489 74.188 76.773C74.206 75.3805 74.2191 73.9879 74.2271 72.5953C74.2338 71.2008 74.2284 69.8063 74.2284 68.4117L74.2224 68.1455C74.1952 67.6972 73.9787 67.4648 73.5338 67.3991L72.5689 67.2523C72.4501 67.2364 72.4069 67.1793 72.4501 67.0737C72.5244 66.8937 72.5955 66.7071 72.7004 66.5451C72.7396 66.4853 72.8717 66.4621 72.9607 66.4641C73.4216 66.4707 73.8824 66.5052 74.3433 66.5046L78.3549 66.4806C79.1279 66.4799 79.8743 66.6147 80.5676 66.9846C81.3306 67.391 81.7576 68.0199 81.8798 68.8765C82.0073 69.7763 81.7343 70.5347 81.0769 71.137C80.8067 71.3853 80.4567 71.5474 80.1433 71.7493L80.041 71.813C80.3319 71.9199 80.6088 72.0122 80.8784 72.1224C81.6673 72.4458 82.2948 72.9512 82.6269 73.758C82.8892 74.3948 82.8892 75.0589 82.7338 75.719C82.4921 76.7523 81.8115 77.4396 80.9263 77.9596C80.0955 78.4476 79.1964 78.7319 78.2388 78.7797C77.3556 78.8242 76.4684 78.8076 75.5832 78.8176L75.0706 78.8202C74.2174 78.8007 73.3643 78.7794 72.5113 78.7565L72.4336 78.7353V78.7353ZM76.1104 74.6918L76.1191 74.6918C76.1191 75.1287 76.1131 75.5657 76.1211 76.0026C76.1264 76.2855 76.1164 76.5764 76.1775 76.8486C76.2692 77.2557 76.4551 77.6229 76.912 77.7398C77.5228 77.9003 78.1608 77.9284 78.7833 77.8221C79.5649 77.686 80.1885 77.2942 80.5305 76.5498C80.7841 75.9966 80.822 75.4102 80.735 74.8112C80.6194 74.0223 80.2004 73.4499 79.5038 73.0747C79.0469 72.8284 78.5595 72.6776 78.0402 72.6577C77.4585 72.6358 76.8761 72.6345 76.2944 72.6166C76.131 72.6119 76.1084 72.6949 76.1091 72.8291C76.1124 73.4493 76.1104 74.0702 76.1104 74.6918V74.6918ZM77.3489 71.7201C77.667 71.7041 78.0269 71.6995 78.3848 71.6636C79.0701 71.5952 79.5529 71.2505 79.8046 70.5951C79.9327 70.2624 79.9274 69.9198 79.9307 69.5738C79.9407 68.6727 79.4148 67.9342 78.5588 67.6288C77.898 67.393 77.2167 67.389 76.5314 67.4077C76.2538 67.415 76.1296 67.5365 76.1256 67.8161L76.0845 71.4611C76.0825 71.6059 76.1449 71.6683 76.2857 71.6729L77.3489 71.7201V71.7201Z" fill="#94795D"/>
<path fill-rule="evenodd" clip-rule="evenodd" d="M7.58051 78.0355L7.53204 78.6623C7.08048 78.6623 6.66411 78.659 6.24775 78.6637C5.46349 78.6717 4.67923 78.6843 3.89431 78.6956L3.81861 78.7002C3.70638 78.687 3.50251 78.687 3.4972 78.6538C3.46399 78.4671 3.47462 78.2713 3.48325 78.078C3.48391 78.0561 3.56028 78.0282 3.60477 78.0176L4.21504 77.8814C4.59555 77.7825 4.72969 77.6185 4.74761 77.2253C4.76819 76.7824 4.78877 76.3388 4.79076 75.8959C4.79673 74.8055 4.79007 73.7164 4.79471 72.626C4.79537 72.371 4.70705 72.1811 4.46931 72.0775C4.18682 71.9521 3.90234 71.8313 3.61599 71.715C3.48052 71.6605 3.30454 71.6306 3.32048 71.4487C3.33641 71.2634 3.50708 71.2149 3.66778 71.1784C4.33317 71.0263 4.99922 70.8782 5.66262 70.7162C5.87645 70.6637 6.08098 70.5754 6.33664 70.4864C6.34992 70.6245 6.37449 70.756 6.37184 70.8875L6.33267 71.5124C6.332 71.5828 6.36853 71.6771 6.42099 71.7163C6.45286 71.7408 6.55978 71.6963 6.6129 71.6552C7.18001 71.2235 7.78032 70.851 8.46496 70.6338C9.52547 70.2971 10.4359 70.6092 11.0734 71.5236C11.2979 71.8457 11.2985 71.8457 11.61 71.6206C12.1445 71.2321 12.7037 70.8894 13.3292 70.6636C14.7025 70.1676 16.022 70.7971 16.4995 72.1803C16.6735 72.6823 16.7399 73.201 16.7385 73.7309L16.726 77.2491C16.7253 77.5393 16.8216 77.7046 17.0979 77.795C17.408 77.8966 17.7294 77.9663 18.0787 78.0579L17.9977 78.6629C17.6006 78.6629 17.2353 78.6602 16.8701 78.6636C15.9776 78.6715 15.0851 78.6762 14.1933 78.6968C14.0379 78.7008 13.9974 78.6623 13.9894 78.5168C13.9635 78.0513 13.9595 78.052 14.3978 77.9471L14.5452 77.9092C14.9735 77.7923 15.1163 77.6608 15.1196 77.2265C15.1296 75.9794 15.1554 74.729 15.0923 73.4846C15.0266 72.1936 14.0019 71.5063 12.7508 71.837C12.347 71.9476 11.9668 72.1308 11.6286 72.3776C11.5124 72.4606 11.4905 72.5562 11.4997 72.7017C11.535 73.2515 11.5569 73.802 11.5615 74.3525C11.5695 75.3161 11.5576 76.2796 11.5616 77.2438C11.5629 77.6343 11.6964 77.7837 12.0822 77.874L12.6553 78.0062L12.7615 78.0301C12.7695 78.2134 12.7768 78.3966 12.7682 78.5799C12.7629 78.6948 12.6739 78.7048 12.5743 78.7028C12.0171 78.6888 11.4593 78.6703 10.9022 78.6716C10.2242 78.6729 9.54681 78.6922 8.86946 78.7042L8.71009 78.7042C8.71009 78.5096 8.70079 78.3236 8.71672 78.1384C8.72004 78.0939 8.7984 78.0315 8.85219 78.0175L9.52024 77.8761C9.80379 77.8063 9.93926 77.6609 9.95519 77.3727C10.0309 76.0379 10.0853 74.7025 9.9598 73.3684C9.9292 73.1049 9.85609 72.8481 9.7433 72.6081C9.4013 71.8524 8.63165 71.5369 7.7438 71.7641C7.32212 71.8716 6.94162 72.0649 6.5817 72.3086C6.50321 72.3569 6.43874 72.4249 6.39471 72.5059C6.35067 72.5869 6.3286 72.678 6.33069 72.7701C6.3307 74.1016 6.33537 75.433 6.33937 76.7638L6.34668 77.2771C6.35465 77.635 6.50672 77.8236 6.862 77.9007C7.09043 77.9525 7.32153 77.9877 7.58051 78.0355V78.0355Z" fill="#50382B"/>
<path fill-rule="evenodd" clip-rule="evenodd" d="M47.7283 70.622C47.8312 71.1227 47.8292 71.573 47.4613 71.9143C47.0961 72.2536 46.6339 72.1394 46.183 72.0637C46.2249 72.3015 46.2713 72.5033 46.2939 72.7079C46.458 74.2279 45.8039 75.3562 44.3941 76.001C43.8615 76.244 43.2964 76.3344 42.7193 76.3808C42.4324 76.4034 42.1814 76.6226 42.1542 76.8583C42.1263 77.0974 42.2764 77.3431 42.5765 77.4148C42.9305 77.4991 43.2997 77.523 43.663 77.5649C44.4426 77.6538 45.2308 77.6943 46.0011 77.8338C47.1659 78.0436 47.816 79.0603 47.6108 80.2304C47.4282 81.2716 46.8253 82.0293 45.9846 82.6104C44.5681 83.5919 43.0142 83.8788 41.3594 83.3781C40.4131 83.0912 39.7457 82.469 39.5153 81.4623C39.3997 80.9583 39.5226 80.5021 39.9017 80.1601C40.3526 79.755 40.8434 79.3937 41.3155 79.0112L41.4682 78.8578L41.2929 78.735C40.8115 78.5065 40.4263 78.1938 40.2769 77.6506C40.2258 77.4666 40.2789 77.3458 40.4349 77.2515C40.7006 77.0914 40.9649 76.9287 41.2272 76.7634C41.3507 76.6863 41.4729 76.6066 41.5877 76.5177C41.7445 76.3981 41.7305 76.3091 41.5433 76.2401C41.1076 76.0794 40.7205 75.8463 40.4203 75.4877C39.9189 74.8894 39.7768 74.1769 39.818 73.4245C39.8824 72.2491 40.5205 71.4748 41.5578 70.9767C42.791 70.385 44.0281 70.3478 45.2852 70.887C45.75 71.0862 46.2401 71.1287 46.7388 71.0942C47.1114 71.0676 47.4367 70.9268 47.7283 70.622V70.622ZM43.1842 79.0431C42.2585 79.0351 41.9683 79.1493 41.4251 79.7025C40.8168 80.3227 40.8201 81.1827 41.4271 81.8056C41.888 82.2777 42.463 82.4989 43.1025 82.5653C43.8496 82.6423 44.5854 82.6111 45.2641 82.2372C45.9879 81.8367 46.3478 81.093 46.1851 80.3439C46.0503 79.7257 45.5947 79.4428 45.0402 79.2801C44.4094 79.0955 43.7573 79.0603 43.1842 79.0431V79.0431ZM41.3659 73.1276C41.3998 73.3846 41.4137 73.6449 41.4708 73.8966C41.6189 74.5487 41.9025 75.1218 42.5513 75.412C43.313 75.754 44.2858 75.6072 44.6192 74.5381C44.8469 73.8265 44.8204 73.058 44.5441 72.3639C44.427 72.0466 44.2163 71.7724 43.9398 71.5777C43.2784 71.1162 42.0851 71.0551 41.599 72.0751C41.4409 72.4064 41.3792 72.7591 41.3659 73.1276V73.1276Z" fill="#4F382B"/>
<path fill-rule="evenodd" clip-rule="evenodd" d="M32.0226 70.4582C32.0472 70.5718 32.0964 70.7006 32.0977 70.8301C32.0997 71.0764 32.0731 71.3228 32.0592 71.5692L32.0592 71.783L32.2677 71.6236C32.8388 71.1535 33.4524 70.753 34.1669 70.5372C35.4565 70.1487 36.7448 70.8546 37.1652 72.1681C37.3245 72.6675 37.3876 73.1808 37.3936 73.7028C37.4069 74.8622 37.4149 76.0217 37.4269 77.1811C37.4309 77.5975 37.4787 77.6719 37.8725 77.792C38.0965 77.8589 38.3251 77.9098 38.5564 77.9441C38.6833 77.964 38.7377 78.0138 38.7311 78.138L38.7324 78.2522C38.7278 78.7323 38.6946 78.7543 38.2291 78.7529C37.1148 78.751 36.0011 78.7576 34.8868 78.7669C34.5548 78.7696 34.5541 78.7795 34.5209 78.4515L34.5143 78.2629C34.5349 77.98 34.5415 77.9827 34.8198 77.9415C35.007 77.9136 35.193 77.8704 35.3756 77.8226C35.5635 77.7741 35.6538 77.6354 35.6791 77.4494C35.6917 77.3551 35.7083 77.2608 35.7076 77.1665C35.6917 75.8995 35.7122 74.6311 35.6431 73.3661C35.5874 72.3428 34.8064 71.7332 33.7791 71.8029C33.2839 71.8372 32.8079 72.008 32.4038 72.2963C32.1296 72.4882 32.0745 72.7652 32.0758 73.0633C32.0811 74.248 32.0924 75.4327 32.1051 76.618C32.1077 76.8777 32.115 77.1373 32.1396 77.395C32.1655 77.6766 32.2644 77.7901 32.5407 77.8512C32.805 77.9096 33.0746 77.9435 33.3568 77.9906L33.3807 78.2085C33.39 78.7165 33.3369 78.7543 32.8435 78.7523C31.6914 78.7477 30.5392 78.755 29.3877 78.7677C29.2065 78.7703 29.1294 78.7132 29.1341 78.5366L29.1314 78.4609C29.1015 78.0033 29.1148 77.9861 29.5478 77.9117L29.7523 77.8705C30.2211 77.7649 30.3413 77.6401 30.348 77.1639C30.3699 75.6558 30.3778 74.1484 30.3931 72.6403C30.3951 72.4238 30.3134 72.2558 30.1115 72.1662C29.8282 72.0421 29.5433 71.9217 29.2568 71.805C29.0988 71.7399 28.9182 71.6987 28.9122 71.4802C28.9082 71.3262 29.0729 71.19 29.298 71.1442C29.7502 71.0526 30.2064 70.9762 30.6534 70.864C31.0983 70.7531 31.5352 70.6043 32.0226 70.4582Z" fill="#4F372B"/>
<path fill-rule="evenodd" clip-rule="evenodd" d="M56.9349 74.3972C56.9137 75.8056 56.5478 76.9445 55.5517 77.7992C54.29 78.8836 52.3218 79.2522 50.7127 78.4414C50.0261 78.0954 49.5214 77.5648 49.1927 76.8762C48.6886 75.817 48.5624 74.7034 48.8254 73.5625C49.0857 72.4343 49.769 71.6168 50.7917 71.0875C51.8435 70.5437 52.9512 70.3311 54.1193 70.6167C55.5968 70.9772 56.6587 72.1818 56.8699 73.7158C56.9077 73.9848 56.9223 74.257 56.9349 74.3972V74.3972ZM55.2237 75.1602L55.1666 75.1535C55.1666 75.0207 55.1739 74.8879 55.1652 74.7551C55.1167 73.9277 54.9308 73.1394 54.4513 72.4468C53.9964 71.7907 53.3769 71.4036 52.5707 71.3472C51.6682 71.2834 50.9099 71.7881 50.6436 72.7098C50.2438 74.0938 50.3793 75.4425 51.0819 76.7102C51.3881 77.2626 51.8416 77.6704 52.4492 77.8849C53.6399 78.3039 54.6958 77.7613 55.0059 76.5421C55.1201 76.0919 55.1533 75.621 55.2237 75.1602Z" fill="#4F382B"/>
<path fill-rule="evenodd" clip-rule="evenodd" d="M27.6857 74.5064C27.6612 75.5171 27.4228 76.4514 26.7986 77.2636C26.1299 78.1335 25.2108 78.5984 24.1656 78.7943C22.9298 79.0254 21.769 78.8156 20.7762 77.9862C20.3047 77.5917 19.9826 77.0864 19.7701 76.5113C19.4215 75.5683 19.3345 74.6021 19.549 73.6173C19.7781 72.5634 20.373 71.7579 21.2954 71.2174C22.3619 70.5938 23.5127 70.3155 24.7419 70.5958C26.3224 70.957 27.2348 71.9869 27.5722 73.5462C27.6399 73.8609 27.6492 74.1863 27.6857 74.5064V74.5064ZM25.9552 75.1731L25.9094 75.1665L25.9094 74.9766C25.8835 74.0495 25.7022 73.1663 25.149 72.396C24.7393 71.8243 24.1907 71.4657 23.4875 71.3654C22.3413 71.2021 21.5923 71.8821 21.3439 72.8058C21.0199 74.0124 21.1215 75.2044 21.6229 76.3486C21.9356 77.0618 22.4297 77.6176 23.1887 77.8872C24.3721 78.3075 25.4439 77.751 25.7434 76.5365C25.8536 76.0922 25.8868 75.6287 25.9552 75.1731V75.1731Z" fill="#4F372B"/>
<path fill-rule="evenodd" clip-rule="evenodd" d="M55.2724 22.9815C56.0872 25.3369 56.6729 27.7414 56.8662 30.233C57.1053 33.3249 56.9964 36.3955 56.3443 39.4363L56.2607 39.6793C56.0561 39.68 55.8476 39.6541 55.6477 39.6853C53.959 39.9509 52.2723 40.2259 50.5849 40.4995C48.8404 40.7824 47.0946 41.054 45.3535 41.3555C44.7365 41.4618 43.9729 41.335 43.7239 42.1876L43.6043 42.2281L43.6886 37.1294L43.6028 24.827L44.4156 24.6876C45.7444 24.4704 47.0732 24.2493 48.404 24.0374C49.9911 23.7857 51.5795 23.54 53.1679 23.2943C53.8692 23.1867 54.5711 23.0864 55.2724 22.9815V22.9815Z" fill="#439934"/>
<path fill-rule="evenodd" clip-rule="evenodd" d="M41.9269 57.0925C41.0696 56.3554 40.1824 55.6508 39.3609 54.8752C34.9395 50.705 31.7048 45.7956 30.1117 39.8768C29.6727 38.2486 29.3805 36.593 29.2862 34.9103C29.2198 33.7323 29.1248 32.5443 29.2085 31.3722C29.4296 28.2557 29.8804 25.1692 30.7941 22.1669L30.8446 22.0972C30.9336 22.2154 31.0611 22.3203 31.1063 22.4538C31.9988 25.0808 32.884 27.7105 33.7652 30.3422C36.5338 38.6104 39.2991 46.8806 42.0723 55.1475C42.1267 55.3088 42.2668 55.441 42.3678 55.5864L41.9269 57.0925V57.0925Z" fill="#45A538"/>
<path fill-rule="evenodd" clip-rule="evenodd" d="M55.2722 22.9815C54.5703 23.0857 53.8684 23.1867 53.1678 23.2943C51.5794 23.54 49.9909 23.7857 48.4038 24.0374C47.0737 24.2486 45.7449 24.4697 44.4155 24.6876L43.6027 24.827L43.596 24.2971C43.5688 23.8615 43.5236 23.4259 43.5176 22.9902L43.4266 14.6536C43.4053 12.9144 43.3734 11.1752 43.3382 9.43671C43.3203 8.35616 43.289 7.27587 43.2445 6.19609C43.218 5.61636 43.1243 5.03929 43.0871 4.45957C43.0652 4.12621 43.0944 3.79019 43.1017 3.45551C43.5161 4.25835 43.9219 5.06718 44.3475 5.86405C45.0202 7.12376 46.0927 8.05211 47.0589 9.06479C50.8747 13.0697 53.5834 17.7234 55.2722 22.9815V22.9815Z" fill="#46A037"/>
<path fill-rule="evenodd" clip-rule="evenodd" d="M43.605 42.2281L43.7245 42.1876C43.9736 41.3349 44.7372 41.4618 45.3541 41.3555C47.0953 41.054 48.8411 40.7824 50.5856 40.4995C52.273 40.2265 53.9597 39.9516 55.6484 39.6853C55.8483 39.6541 56.0568 39.68 56.2613 39.6793C55.9459 40.8055 55.6976 41.9564 55.2972 43.0514C54.8423 44.2932 54.2925 45.5058 53.7088 46.6945C52.8344 48.4671 51.7526 50.1296 50.4861 51.6471C49.5126 52.8172 48.4276 53.9003 47.3405 54.9688C46.7389 55.5591 46.031 56.0406 45.3709 56.5718L45.1996 56.455L44.584 55.929L43.9471 54.5318C43.512 52.9026 43.2745 51.2268 43.2399 49.5408L43.2518 49.2565L43.3388 48.0254C43.3673 47.605 43.4058 47.1853 43.4238 46.765C43.4875 45.2536 43.5446 43.7408 43.605 42.2281V42.2281Z" fill="#409433"/>
<path fill-rule="evenodd" clip-rule="evenodd" d="M43.6048 42.2281C43.545 43.7408 43.4879 45.2542 43.4235 46.767C43.4056 47.188 43.3678 47.6077 43.3385 48.0274L42.9507 48.1741C42.0887 45.6368 41.2261 43.126 40.3827 40.6092C38.9875 36.4448 37.6095 32.2745 36.2163 28.1089C35.0912 24.747 33.9583 21.3877 32.8175 18.0311C32.7637 17.8744 32.6109 17.7509 32.5047 17.6121L34.9882 13.0453C35.0739 13.1934 35.1861 13.3322 35.2399 13.4916C36.3888 16.8916 37.5357 20.2922 38.6726 23.6962C40.1522 28.1255 41.6218 32.5567 43.1 36.9867C43.1591 37.1633 43.2561 37.3267 43.349 37.5252L43.689 37.1294L43.6048 42.2281Z" fill="#4FAA41"/>
<path fill-rule="evenodd" clip-rule="evenodd" d="M32.5042 17.6121C32.6111 17.7509 32.7638 17.8744 32.8169 18.0311C33.9578 21.3877 35.0907 24.747 36.2157 28.1089C37.609 32.2745 38.9869 36.4448 40.3822 40.6092C41.2256 43.1259 42.0882 45.6361 42.9502 48.1741L43.338 48.0274L43.251 49.2585L43.172 49.5421C43.0372 50.8895 42.9237 52.2395 42.759 53.5842C42.6767 54.2583 42.5007 54.9197 42.3672 55.5864C42.267 55.441 42.1262 55.3088 42.0717 55.1475C39.2978 46.8806 36.5332 38.6104 33.7647 30.3422C32.8838 27.7109 31.9975 25.0814 31.1057 22.4538C31.0605 22.3203 30.933 22.2154 30.844 22.0972L32.5042 17.6121V17.6121Z" fill="#4AA73C"/>
<path fill-rule="evenodd" clip-rule="evenodd" d="M43.6884 37.1295L43.3484 37.5252C43.2554 37.3267 43.1585 37.1633 43.0994 36.9867C41.6211 32.5567 40.1515 28.1255 38.6719 23.6962C37.5337 20.2927 36.3895 16.8911 35.2393 13.4916C35.1855 13.3322 35.0733 13.1934 34.9876 13.0453L38.0588 9.00515C38.1558 9.13398 38.2939 9.24886 38.3437 9.39429C39.1964 11.8912 40.0411 14.39 40.8819 16.8909C41.6668 19.227 42.4398 21.5658 43.234 23.898C43.2872 24.0541 43.4724 24.1643 43.596 24.2971L43.6026 24.827L43.6884 37.1295V37.1295Z" fill="#57AE47"/>
<path fill-rule="evenodd" clip-rule="evenodd" d="M43.596 24.2971C43.4718 24.165 43.2872 24.0547 43.2341 23.898C42.4405 21.5658 41.6669 19.227 40.8819 16.8909C40.0418 14.39 39.1958 11.8911 38.3438 9.39428C38.294 9.24885 38.1559 9.13397 38.0589 9.00514C39.0576 8.02697 40.0252 7.0136 41.0644 6.08058C41.9881 5.25182 42.7305 4.36329 42.765 3.0531L42.8381 2.79212L43.1011 3.45485C43.0944 3.78954 43.0646 4.12555 43.0865 4.45891C43.1243 5.03864 43.218 5.61571 43.2439 6.19543C43.2924 7.27454 43.3156 8.35563 43.3375 9.43606C43.3728 11.1746 43.4047 12.9138 43.4259 14.6529L43.517 22.9896C43.5236 23.4259 43.5695 23.8615 43.596 24.2971V24.2971Z" fill="#60B24F"/>
<path fill-rule="evenodd" clip-rule="evenodd" d="M42.3679 55.5857C42.5014 54.919 42.6774 54.2576 42.7597 53.5836C42.9244 52.2395 43.0379 50.8888 43.1727 49.5414L43.2066 49.5361L43.2398 49.5421C43.2745 51.2281 43.5119 52.9039 43.9471 54.5332C43.8574 54.6514 43.7319 54.7556 43.6841 54.8885C43.3156 55.9284 42.9676 56.9769 42.5971 58.0162C42.5466 58.1583 42.4045 58.2692 42.3055 58.3934L41.9264 57.0918L42.3679 55.5857Z" fill="#A9AA88"/>
<path fill-rule="evenodd" clip-rule="evenodd" d="M42.3055 58.3941C42.4044 58.2692 42.5465 58.159 42.597 58.0169C42.9675 56.9776 43.3155 55.9291 43.684 54.8891C43.7312 54.7563 43.8573 54.6521 43.947 54.5339L44.5838 55.931C44.4583 56.109 44.2843 56.2704 44.2146 56.4689L42.9954 60.0496C42.945 60.1937 42.7743 60.2946 42.6588 60.4161L42.3055 58.3941V58.3941Z" fill="#B6B598"/>
<path fill-rule="evenodd" clip-rule="evenodd" d="M42.6587 60.4155C42.7736 60.2939 42.9449 60.193 42.9954 60.0489L44.2146 56.4683C44.2837 56.2697 44.4583 56.1083 44.5838 55.9304L45.2001 56.4556C44.9026 56.7498 44.7372 57.0898 44.8368 57.5195L44.6496 58.1324C44.5646 58.2373 44.4411 58.329 44.3992 58.4492C43.9736 59.6684 43.5678 60.8942 43.1389 62.1128C43.0844 62.2669 42.9337 62.3884 42.8281 62.5252L42.6587 60.4155V60.4155Z" fill="#C2C1A7"/>
<path fill-rule="evenodd" clip-rule="evenodd" d="M42.8274 62.5245C42.9337 62.3877 43.0844 62.2662 43.1382 62.1121C43.5672 60.8936 43.9736 59.6677 44.3985 58.4485C44.4404 58.3283 44.5639 58.2373 44.6489 58.1317L44.3906 60.9447C44.3215 61.0244 44.2219 61.0941 44.1887 61.1864L43.3295 63.6488C43.269 63.8168 43.1535 63.9669 43.0632 64.1242C42.9828 64.0193 42.8394 63.9177 42.8327 63.8088C42.8075 63.3825 42.8254 62.9528 42.8274 62.5245V62.5245Z" fill="#CECDB7"/>
<path fill-rule="evenodd" clip-rule="evenodd" d="M43.064 64.1249C43.1543 63.9675 43.2699 63.8174 43.3303 63.6494L44.1896 61.1871C44.2228 61.0941 44.323 61.025 44.3914 60.9454L44.3981 62.7915L43.7799 64.3766L43.064 64.1249V64.1249Z" fill="#DBDAC7"/>
<path fill-rule="evenodd" clip-rule="evenodd" d="M43.7798 64.3766L44.398 62.7915L44.5255 64.6668L43.7798 64.3766V64.3766Z" fill="#EBE9DC"/>
<path fill-rule="evenodd" clip-rule="evenodd" d="M44.8362 57.5195C44.7372 57.0905 44.9019 56.7505 45.1994 56.4557L45.3707 56.5725L44.8362 57.5195V57.5195Z" fill="#CECDB7"/>
<path fill-rule="evenodd" clip-rule="evenodd" d="M43.2397 49.5428L43.2065 49.5368L43.1726 49.5421L43.2516 49.2585L43.2397 49.5428V49.5428Z" fill="#4FAA41"/>
</svg>
