<svg width="80" height="80" viewBox="0 0 86 86" fill="none" xmlns="http://www.w3.org/2000/svg">
<path d="M2.01155 60.2149L4.73952 60.2148L4.7394 49.4418L8.96294 58.8335C9.461 59.9704 10.143 60.3722 11.4811 60.3721C12.8192 60.3721 13.4753 59.9704 13.9733 58.8335L18.1966 49.4416L18.1967 60.2147L20.9247 60.2147L20.9246 49.4595C20.9246 48.4103 20.5049 47.9023 19.6389 47.6406C17.5664 46.9939 16.1759 47.5537 15.5463 48.9529L11.402 58.2219L7.389 48.9523C6.78535 47.5538 5.3689 46.994 3.29637 47.6402C2.43044 47.9025 2.01075 48.4098 2.01077 49.4591L2.01088 60.2149L2.01155 60.2149ZM23.1937 51.445L25.921 51.445L25.9211 57.3804C25.8959 57.7024 26.0247 58.4595 27.5188 58.4834C28.2812 58.4953 33.4038 58.4833 33.4516 58.4833L33.4515 51.4157L36.1854 51.4156C36.1981 51.4156 36.1829 61.0538 36.1829 61.0937C36.1975 63.471 33.2338 63.987 31.8672 64.0269L23.253 64.027L23.2529 62.1915C23.2675 62.1915 31.8612 62.1934 31.8824 62.1908C33.6389 62.0055 33.431 61.1329 33.4303 60.8394L33.4303 60.1235L27.6324 60.1236C24.935 60.0991 23.2164 58.9217 23.1944 57.567C23.1931 57.4428 23.2535 51.5048 23.1937 51.445V51.445Z" fill="#00618A"/>
<path d="M38.2887 60.2145L46.1326 60.2144C47.051 60.2144 47.9435 60.0224 48.6514 59.6904C49.8314 59.1485 50.4085 58.414 50.4085 57.4511L50.4085 55.4576C50.4085 54.6707 49.753 53.9356 48.4674 53.4469C47.7854 53.1839 46.9454 53.0451 46.1319 53.0451L42.8262 53.0452C41.7245 53.0452 41.1999 52.7132 41.0691 51.9787C41.0432 51.8911 41.0432 51.8213 41.0432 51.7337L41.0431 50.4919C41.0431 50.4222 41.0431 50.3518 41.069 50.2648C41.1998 49.705 41.4887 49.5476 42.4596 49.4599L42.7219 49.4426L50.5133 49.4426L50.5133 47.6244L42.8533 47.6244C41.7517 47.6245 41.1746 47.6942 40.65 47.8516C39.0237 48.3589 38.3145 49.1631 38.3145 50.5623L38.3145 52.1534C38.3145 53.3779 39.7058 54.4271 42.0399 54.6721C42.3029 54.6887 42.5646 54.7073 42.8269 54.7073L45.6604 54.7073C45.7653 54.7073 45.8703 54.7073 45.9493 54.7239C46.8152 54.7936 47.1818 54.9517 47.4448 55.2658C47.5121 55.328 47.5656 55.4038 47.6017 55.4881C47.6377 55.5724 47.6555 55.6635 47.6539 55.7552L47.654 57.3469C47.654 57.5388 47.5231 57.7839 47.2608 57.9937C47.0251 58.2036 46.6313 58.3437 46.1067 58.3789L45.8178 58.3962L38.2887 58.3963L38.2887 60.2145ZM67.4284 57.0492C67.4284 58.9199 68.819 59.9691 71.6253 60.1795C71.8876 60.1968 72.1499 60.2141 72.4122 60.2141L79.5217 60.214L79.5217 58.3958L72.3604 58.3959C70.76 58.3959 70.157 57.9935 70.157 57.0312L70.1569 47.6228L67.429 47.6228L67.4291 57.0492L67.4284 57.0492ZM52.1497 57.1437L52.1496 50.6591C52.1496 49.0122 53.3064 48.0128 55.5934 47.6973C55.8371 47.6624 56.083 47.6448 56.3292 47.6449L61.5082 47.6448C61.7712 47.6448 62.0076 47.6621 62.2699 47.6973C64.5569 48.0127 65.7144 49.0114 65.7144 50.6589L65.7145 57.1435C65.7145 58.4809 65.2231 59.1955 64.0909 59.6617L66.779 62.0874L63.6108 62.0875L61.4366 60.1245L59.2479 60.2633L56.3293 60.2634C55.7871 60.2599 55.2479 60.1833 54.7263 60.0356C52.9911 59.5628 52.1497 58.6511 52.1497 57.1437V57.1437ZM55.0941 56.9863C55.0941 57.0739 55.12 57.1622 55.1466 57.2671C55.304 58.0209 56.0145 58.4412 57.0916 58.4412L59.5699 58.4412L57.2935 56.3859L60.4617 56.3859L62.4466 58.1788C62.8132 57.9829 63.0536 57.6854 63.1379 57.3022C63.1638 57.2146 63.1638 57.1269 63.1638 57.0393L63.1637 50.8183C63.1637 50.7486 63.1637 50.6603 63.1378 50.5726C62.9798 49.8714 62.2699 49.469 61.2187 49.469L57.0909 49.469C55.8823 49.4691 55.0934 49.995 55.0934 50.8184L55.0934 56.9863L55.0941 56.9863Z" fill="#E48E00"/>
<path d="M81.9214 44.6045C80.2446 44.5587 78.9636 44.7147 77.8679 45.1763C77.5565 45.3078 77.0604 45.3111 77.01 45.7009C77.1806 45.8809 77.2072 46.1485 77.3433 46.3689C77.605 46.792 78.0466 47.3591 78.4404 47.6559C78.87 47.9806 79.3136 48.3286 79.7758 48.6101C80.5959 49.1108 81.5123 49.3964 82.3032 49.897C82.7688 50.1932 83.2309 50.5651 83.6858 50.8991C83.911 51.0631 84.061 51.3201 84.3539 51.423L84.3539 51.3759C84.2005 51.1807 84.1606 50.9124 84.0199 50.7078L83.3996 50.0876C82.7933 49.2828 82.0243 48.5769 81.2055 47.9899C80.5534 47.5217 79.0938 46.8889 78.8215 46.1299L78.7737 46.0827C79.2359 46.0303 79.7778 45.8629 80.2041 45.7487C80.9213 45.5561 81.5621 45.6059 82.3025 45.4146L83.3039 45.1277L83.3039 44.9378C82.9301 44.554 82.6624 44.0453 82.2547 43.698C81.1875 42.7889 80.0214 41.8805 78.8215 41.1222C78.1561 40.7025 77.3333 40.4296 76.6274 40.0736C76.391 39.9534 75.974 39.8917 75.8166 39.6918C75.4454 39.2197 75.2441 38.6214 74.9579 38.0708C74.3466 36.8816 73.7741 35.6728 73.2413 34.4464C72.88 33.6197 72.6436 32.8042 72.1927 32.0624C70.0271 28.5024 67.6963 26.3536 64.0857 24.2419C63.3174 23.7923 62.3924 23.6157 61.4155 23.3839L59.8417 23.2883C59.5223 23.1549 59.1889 22.7631 58.8881 22.5731C57.6915 21.8175 54.6235 20.1739 53.7376 22.3355C53.1785 23.6995 54.5744 25.0302 55.0731 25.7215C55.4231 26.2063 55.872 26.7495 56.1223 27.2947C56.287 27.6533 56.3149 28.0125 56.4564 28.3917C56.8024 29.3254 57.1045 30.342 57.5528 31.2046C57.7792 31.6416 58.0296 32.1018 58.3158 32.4923C58.4911 32.7313 58.7926 32.8376 58.8397 33.2074C58.5456 33.6192 58.5283 34.2593 58.363 34.7806C57.6179 37.1307 57.8988 40.0519 58.9833 41.7911C59.316 42.3257 60.0996 43.4705 61.1767 43.0309C62.119 42.6471 61.9091 41.4577 62.1787 40.4078C62.2398 40.1708 62.202 39.9955 62.3215 39.8361L62.3215 39.8839L63.1801 41.6005C63.8157 42.6238 64.9426 43.6923 65.8982 44.4141C66.3936 44.7879 66.7841 45.4354 67.4242 45.6539L67.4242 45.6054L67.3771 45.6054C67.2522 45.4122 67.059 45.3325 66.8996 45.1764C66.5264 44.8105 66.1114 44.3563 65.8032 43.9366C64.9339 42.7573 64.1663 41.4657 63.4663 40.1216C63.1323 39.4801 62.8421 38.7722 62.5605 38.1188C62.4516 37.8671 62.453 37.486 62.2272 37.3565C61.9177 37.8346 61.4642 38.2218 61.2251 38.7869C60.844 39.69 60.7948 40.7917 60.6534 41.9339L60.5578 41.981C59.893 41.821 59.6599 41.137 59.4129 40.5506C58.7887 39.0678 58.6724 36.6792 59.2223 34.9719C59.3644 34.5296 60.0065 33.1384 59.7462 32.73C59.622 32.3229 59.2123 32.0878 58.9838 31.7757C58.6841 31.3581 58.4284 30.9106 58.2208 30.4403C57.7095 29.2842 57.471 27.9859 56.9338 26.8165C56.6761 26.2574 56.2418 25.6923 55.8846 25.1956C55.4894 24.6444 55.0465 24.2393 54.7397 23.5739C54.6308 23.3375 54.4827 22.9584 54.6441 22.7153C54.6952 22.5513 54.7689 22.4829 54.9309 22.4291C55.2072 22.2159 55.9775 22.5001 56.2657 22.6197C57.0307 22.9377 57.6689 23.2399 58.317 23.6689C58.6278 23.8754 58.9419 24.2738 59.3184 24.384L59.7474 24.384C60.4188 24.5381 61.1712 24.4312 61.798 24.6217C62.907 24.9591 63.9005 25.483 64.8023 26.0528C67.5509 27.7886 69.7974 30.2589 71.3354 33.206C71.5824 33.6808 71.69 34.133 71.9072 34.6364C72.3468 35.651 72.9006 36.6956 73.3376 37.6884C73.7739 38.6785 74.1996 39.6779 74.8165 40.502C75.1406 40.9349 76.393 41.1674 76.9621 41.4077C77.3612 41.5764 78.0146 41.7524 78.3925 41.9795C79.1143 42.4151 79.8143 42.9337 80.4909 43.4105C80.829 43.6509 81.8695 44.1735 81.9214 44.6045V44.6045ZM60.6054 26.4366C60.3163 26.4319 60.0278 26.464 59.7468 26.5323L59.7468 26.5794L59.7946 26.5794C59.9613 26.9227 60.2555 27.1432 60.462 27.4381L60.9395 28.4395L60.9866 28.3923C61.2821 28.1844 61.4169 27.8518 61.4156 27.3431C61.2967 27.2182 61.2794 27.0622 61.1772 26.9141C61.0417 26.7149 60.7774 26.6033 60.6054 26.4366V26.4366Z" fill="#00618A"/>
</svg>
