<svg width="80" height="100" viewBox="0 0 89 130" fill="none" xmlns="http://www.w3.org/2000/svg">
<path d="M79.4839 56.734C79.2913 56.734 79.1001 56.6808 78.9314 56.5773L77.1716 55.4804C76.9087 55.3257 77.0368 55.2705 77.1238 55.239C77.4744 55.1103 77.5455 55.0802 77.9194 54.8577C77.9585 54.8346 78.0097 54.843 78.0502 54.8682L79.4016 55.714C79.4267 55.7281 79.4547 55.7355 79.4832 55.7355C79.5117 55.7355 79.5398 55.7281 79.5649 55.714L84.8355 52.5091C84.8604 52.4936 84.8809 52.4716 84.8951 52.4452C84.9093 52.4188 84.9167 52.389 84.9166 52.3586L84.9165 45.9503C84.9165 45.9195 84.909 45.8893 84.8947 45.8624C84.8804 45.8356 84.8598 45.8131 84.8348 45.7971L79.5661 42.5951C79.5412 42.5806 79.5132 42.5731 79.4848 42.5731C79.4563 42.5731 79.4283 42.5806 79.4034 42.5951L74.1354 45.7979C74.1105 45.8138 74.0897 45.8362 74.0752 45.8629C74.0607 45.8895 74.0528 45.9197 74.0524 45.9504L74.0525 52.3588C74.0525 52.4203 74.085 52.4784 74.1355 52.5071L75.5792 53.3865C76.3628 53.7985 76.8429 53.313 76.8429 52.8247L76.8428 46.4968C76.8428 46.4079 76.9112 46.3373 76.9956 46.3373L77.6643 46.3373C77.7473 46.3373 77.8163 46.4079 77.8163 46.4968L77.8164 52.8247C77.8164 53.9258 77.2473 54.5576 76.2559 54.5576C75.9511 54.5576 75.7114 54.5576 75.042 54.2106L73.6601 53.3725C73.4919 53.2693 73.3525 53.1214 73.2555 52.9437C73.1586 52.7659 73.1075 52.5645 73.1075 52.3595L73.1075 45.9511C73.1075 45.5349 73.318 45.1466 73.66 44.9395L78.9306 41.7304C79.1004 41.633 79.2907 41.5819 79.4841 41.5819C79.6775 41.5819 79.8677 41.633 80.0376 41.7304L85.3083 44.9394C85.6496 45.1472 85.8614 45.5354 85.8615 45.951L85.8615 52.3593C85.8612 52.5643 85.81 52.7657 85.7129 52.9434C85.6159 53.1211 85.4764 53.269 85.3084 53.3724L80.0377 56.578C79.8695 56.6808 79.6784 56.7347 79.4839 56.734ZM81.1128 52.3188C78.8052 52.3188 78.3224 51.203 78.3224 50.2676C78.3226 50.2251 78.3387 50.1843 78.3674 50.1543C78.396 50.1243 78.4347 50.1074 78.4751 50.1074L79.1565 50.1074C79.1929 50.1073 79.2282 50.1209 79.256 50.1458C79.2838 50.1706 79.3022 50.2052 79.3079 50.2431C79.4101 50.9742 79.7176 51.3429 81.1128 51.3429C82.2224 51.3429 82.6953 51.0784 82.6953 50.4572C82.6952 50.099 82.5611 49.8338 80.8359 49.6554C79.3935 49.505 78.5017 49.1699 78.5017 47.9533C78.5017 46.8333 79.3981 46.1644 80.9002 46.1644C82.589 46.1644 83.4244 46.7821 83.53 48.1072C83.5316 48.1295 83.5289 48.1519 83.5221 48.1731C83.5152 48.1943 83.5044 48.2137 83.4901 48.2303C83.4757 48.2462 83.4584 48.259 83.4392 48.2677C83.4201 48.2765 83.3994 48.2811 83.3785 48.2814L82.6939 48.2814C82.6594 48.2815 82.6258 48.2691 82.5989 48.2463C82.572 48.2235 82.5532 48.1917 82.5458 48.1562C82.3811 47.3866 81.9827 47.1411 80.8996 47.1411C79.6877 47.1411 79.5469 47.5867 79.5469 47.919C79.5469 48.3227 79.7129 48.4402 81.3498 48.6683C82.9695 48.8942 83.7391 49.2133 83.7392 50.4131C83.7398 51.6255 82.7823 52.3188 81.1128 52.3188" fill="#83CD29"/>
<path d="M68.6311 48.1158C68.8389 47.9877 68.9671 47.7541 68.9671 47.5001L68.967 45.8533C68.967 45.6 68.8395 45.3663 68.631 45.2383L63.0768 41.8411C62.9741 41.7782 62.8574 41.745 62.7386 41.7447C62.6198 41.7445 62.503 41.7772 62.4001 41.8397L56.8114 45.2392C56.7089 45.3017 56.6238 45.3914 56.5646 45.4995C56.5054 45.6075 56.4742 45.7301 56.474 45.8548L56.4741 52.6521C56.4741 52.9075 56.6043 53.1439 56.8155 53.2706L62.369 56.6041C62.5736 56.7279 62.8246 56.7286 63.0311 56.6083L66.3899 54.641C66.4422 54.6104 66.4858 54.5657 66.5164 54.5116C66.5469 54.4574 66.5632 54.3956 66.5636 54.3326C66.564 54.2696 66.5485 54.2076 66.5187 54.153C66.4888 54.0984 66.4458 54.0531 66.3939 54.0218L60.7706 50.6218C60.719 50.5909 60.6761 50.5461 60.6462 50.492C60.6164 50.438 60.6006 50.3766 60.6006 50.314L60.6005 48.183C60.6005 48.0557 60.665 47.9389 60.7692 47.8759L62.5203 46.8125C62.5715 46.7812 62.6296 46.7648 62.6887 46.7648C62.7478 46.7648 62.8059 46.7812 62.857 46.8125L64.6082 47.8759C64.6595 47.9069 64.7022 47.9516 64.7319 48.0055C64.7617 48.0594 64.7774 48.1206 64.7775 48.183L64.7775 49.8592C64.7772 49.9219 64.7926 49.9836 64.8222 50.0379C64.8518 50.0923 64.8946 50.1374 64.9462 50.1687C64.9977 50.2 65.0562 50.2163 65.1157 50.216C65.1752 50.2157 65.2336 50.1988 65.2849 50.167L68.6311 48.1158" fill="#404137"/>
<path d="M62.6558 47.7968C62.6756 47.7852 62.6979 47.7791 62.7205 47.7791C62.7432 47.7791 62.7655 47.7852 62.7853 47.7968L63.8578 48.4495C63.8976 48.474 63.9222 48.5195 63.9222 48.5678L63.9222 49.8725C63.9222 49.9215 63.8976 49.9663 63.8578 49.9908L62.7853 50.6428C62.7657 50.6548 62.7433 50.6612 62.7206 50.6612C62.6978 50.6612 62.6755 50.6548 62.6558 50.6428L61.584 49.9908C61.5642 49.9789 61.5478 49.9617 61.5363 49.9409C61.5249 49.9202 61.5189 49.8966 61.5189 49.8726L61.5189 48.5678C61.5189 48.5195 61.5435 48.474 61.584 48.4496L62.6558 47.7968Z" fill="#83CD29"/>
<path d="M48.1122 50.5114C48.1122 50.5744 48.0803 50.6332 48.0279 50.6654L46.1087 51.8309C46.0832 51.8467 46.054 51.8551 46.0244 51.8551C45.9947 51.8551 45.9656 51.8467 45.9401 51.8309L44.0209 50.6654C43.9953 50.6498 43.974 50.6273 43.9592 50.6003C43.9444 50.5733 43.9366 50.5427 43.9366 50.5115L43.9365 48.1762C43.9365 48.1133 43.9691 48.0538 44.0209 48.0216L45.94 46.8547C45.9656 46.8385 45.9948 46.83 46.0247 46.83C46.0545 46.83 46.0838 46.8385 46.1093 46.8547L48.0292 48.0216C48.0546 48.0375 48.0757 48.0602 48.0903 48.0873C48.105 48.1144 48.1128 48.145 48.1128 48.1762L48.1129 50.5114L48.1122 50.5114ZM48.6306 33.2201C48.5792 33.1905 48.5213 33.1754 48.4627 33.1764C48.404 33.1773 48.3466 33.1943 48.2961 33.2256C48.2455 33.2569 48.2035 33.3014 48.1742 33.3549C48.1448 33.4084 48.1291 33.469 48.1286 33.5308L48.1287 42.5661C48.1285 42.6097 48.1176 42.6524 48.097 42.6902C48.0764 42.728 48.0468 42.7595 48.0112 42.7816C47.9752 42.8032 47.9344 42.8146 47.893 42.8146C47.8515 42.8146 47.8108 42.8032 47.7748 42.7816L46.3749 41.9316C46.2724 41.8694 46.1562 41.8367 46.0379 41.8367C45.9196 41.8367 45.8034 41.8694 45.7009 41.9316L40.1108 45.3303C40.0081 45.3928 39.9228 45.4826 39.8635 45.5908C39.8042 45.699 39.7729 45.8217 39.7728 45.9467L39.7729 52.7461C39.7729 53 39.9018 53.2344 40.1103 53.3624L45.7004 56.7631C45.9089 56.8904 46.1666 56.8904 46.3757 56.7631L51.9671 53.3623C52.0696 53.2996 52.1547 53.2097 52.2139 53.1015C52.2731 52.9934 52.3043 52.8708 52.3044 52.7459L52.3043 35.7967C52.3043 35.5393 52.1714 35.3014 51.9583 35.1755L48.6306 33.2201Z" fill="#404137"/>
<path d="M28.9572 41.8037C29.0597 41.7412 29.1761 41.7083 29.2945 41.7083C29.413 41.7083 29.5293 41.7412 29.6319 41.8037L35.222 45.2016C35.4305 45.329 35.5593 45.564 35.5593 45.818L35.5594 52.6195C35.5594 52.8734 35.4306 53.1085 35.2221 53.2358L29.6327 56.6367C29.53 56.6989 29.4135 56.7317 29.295 56.7317C29.1765 56.7317 29.0601 56.6989 28.9573 56.6367L23.3692 53.236C23.2667 53.1733 23.1816 53.0834 23.1224 52.9753C23.0632 52.8671 23.032 52.7445 23.0319 52.6196L23.0318 45.8174C23.0318 45.5642 23.1606 45.3291 23.3691 45.2018L28.9572 41.8037" fill="#83CD29"/>
<path d="M18.7918 45.7615C18.7918 45.5055 18.6643 45.2704 18.4544 45.1438L12.8663 41.7557C12.7724 41.6984 12.6666 41.6664 12.5582 41.6626L12.5004 41.6626C12.392 41.6665 12.2861 41.6985 12.1923 41.7557L6.60355 45.1439C6.50074 45.2066 6.41539 45.2967 6.35606 45.4051C6.29673 45.5136 6.26552 45.6365 6.26555 45.7617L6.2776 54.8845C6.2776 55.0118 6.34069 55.13 6.44628 55.1916C6.49683 55.2239 6.55483 55.241 6.61395 55.241C6.67308 55.241 6.73107 55.2239 6.78163 55.1916L10.1019 53.1879C10.3118 53.0564 10.4399 52.8248 10.4399 52.5708L10.4399 48.3089C10.4399 48.0542 10.5674 47.8198 10.7765 47.6925L12.191 46.8348C12.2932 46.7715 12.4098 46.7384 12.5283 46.7389C12.6439 46.7389 12.7621 46.7697 12.865 46.8348L14.2781 47.6925C14.4873 47.8198 14.6162 48.0542 14.6162 48.3088L14.6162 52.5708C14.6162 52.8247 14.7457 53.0577 14.9542 53.1878L18.2746 55.1914C18.3258 55.2223 18.3837 55.2384 18.4427 55.2382C18.5017 55.2381 18.5596 55.2217 18.6106 55.1906C18.6617 55.1595 18.7041 55.1149 18.7337 55.0612C18.7633 55.0074 18.779 54.9464 18.7792 54.8843L18.7918 45.7615" fill="#404137"/>
<path d="M26.4355 98.8249L26.4353 82.1009L27.2683 82.1009L27.2683 84.7317C27.3667 84.6152 27.4576 84.4914 27.5403 84.3612C27.8807 83.5911 28.4154 82.9428 29.0818 82.4921C29.7482 82.0415 30.5187 81.8072 31.303 81.8167C33.2013 81.7549 34.7426 82.5207 35.6493 84.3611C36.2262 85.5044 36.5437 86.7815 36.5753 88.0858C36.6068 89.3901 36.3516 90.6837 35.8307 91.8585C34.9864 93.9212 32.9011 94.9464 30.6684 94.5697C29.9736 94.5052 29.3047 94.2522 28.7227 93.8336C28.1407 93.4151 27.6641 92.8444 27.3364 92.1736L27.3365 98.8249L26.4355 98.8249ZM27.2684 88.0173C27.342 88.8325 27.3704 89.413 27.4554 89.9812C27.7841 92.2168 28.9968 93.5446 30.9008 93.7854C31.7948 93.9455 32.7121 93.7629 33.4964 93.2685C34.2806 92.7741 34.8833 91.9986 35.2017 91.0742C35.5676 90.1233 35.7437 89.0985 35.7183 88.0678C35.6929 87.0371 35.4665 86.0241 35.0543 85.096C34.7144 84.2675 34.1364 83.582 33.4075 83.143C32.6786 82.7041 31.8385 82.5355 31.014 82.6628C30.2398 82.7239 29.5024 83.0464 28.9042 83.5855C28.3061 84.1245 27.8769 84.8533 27.6763 85.6705C27.4989 86.4435 27.3626 87.2271 27.2684 88.0173V88.0173ZM53.5674 90.2896C53.4412 91.4671 52.9269 92.5546 52.1201 93.3498C51.3134 94.145 50.2691 94.5938 49.1814 94.6127C45.6908 94.8042 44.0531 92.2783 43.7924 89.3634C43.6114 87.7804 43.8473 86.174 44.4723 84.7315C44.9076 83.7421 45.6205 82.9293 46.5079 82.4108C47.3952 81.8923 48.4109 81.695 49.408 81.8474C50.3559 81.9349 51.2545 82.3453 51.9766 83.0202C52.6987 83.6952 53.2076 84.6007 53.4313 85.6084C53.6087 86.5262 53.7392 87.454 53.8224 88.3875L44.648 88.3876C44.4781 91.0308 45.7814 93.1553 47.6288 93.6679C49.9294 94.2854 51.8958 93.1984 52.6097 90.8146C52.7684 90.2032 53.0574 90.1167 53.5674 90.2896V90.2896ZM44.648 87.5415L52.8477 87.5414C52.7967 84.7253 51.1873 82.6873 49.0056 82.6564C46.535 82.6132 44.7557 84.5771 44.648 87.5415ZM55.2561 90.3514L56.0607 90.3514C56.0905 90.9966 56.2828 91.6205 56.6168 92.1544C56.9507 92.6882 57.4132 93.1114 57.9534 93.3775C58.6318 93.7102 59.3704 93.8719 60.114 93.8505C60.8577 93.8291 61.5874 93.6252 62.2488 93.2539C62.6092 93.0768 62.9111 92.7835 63.1137 92.4136C63.3164 92.0436 63.41 91.6148 63.3821 91.185C63.4028 90.7705 63.2989 90.3599 63.0862 90.0155C62.8735 89.6712 62.5636 89.4118 62.2034 89.2767C61.3194 88.9185 60.3787 88.7209 59.4777 88.4059C58.5402 88.115 57.6236 87.7497 56.735 87.3129C55.2843 86.5409 55.1936 83.5333 56.837 82.5822C57.6784 82.0647 58.6254 81.7851 59.5915 81.7689C60.5576 81.7527 61.512 82.0004 62.3676 82.4895C62.886 82.8017 63.3047 83.2787 63.5679 83.8569C63.8311 84.435 63.9264 85.0869 63.841 85.7256L63.1497 85.7256C63.1497 85.6886 63.0873 85.6577 63.0873 85.6206C63.0023 83.2182 61.155 82.4772 59.1716 82.6872C58.5796 82.7668 58.0045 82.9569 57.4716 83.2492C57.1515 83.4087 56.8847 83.6727 56.7081 84.0046C56.5315 84.3364 56.4538 84.7199 56.4857 85.1019C56.4867 85.4842 56.5961 85.8567 56.799 86.1685C57.0019 86.4803 57.2883 86.7161 57.619 86.8435C58.4917 87.1893 59.404 87.4116 60.2994 87.6834C61.019 87.8995 61.767 88.0415 62.464 88.3009C62.956 88.4767 63.3874 88.8111 63.7011 89.2599C64.0147 89.7088 64.196 90.2509 64.2207 90.8144C64.3048 91.4319 64.2083 92.0626 63.9449 92.6169C63.6814 93.1712 63.2644 93.621 62.7531 93.9024C60.8604 95.0696 57.7438 94.7608 56.3554 93.2848C56.0036 92.8992 55.7253 92.4414 55.5366 91.9379C55.3479 91.4344 55.2525 90.8952 55.2561 90.3514ZM74.4207 85.7255L73.667 85.7255C73.667 85.6143 73.6273 85.5155 73.616 85.4229C73.6038 84.8072 73.3978 84.2148 73.0326 83.7448C72.6674 83.2749 72.1652 82.9559 71.61 82.8414C70.5624 82.5139 69.4449 82.5725 68.431 83.0082C68.0302 83.1334 67.6774 83.3966 67.4251 83.7583C67.1729 84.1201 67.0347 84.561 67.0313 85.0153C67.0172 85.4615 67.1449 85.8994 67.3926 86.2549C67.6404 86.6105 67.9932 86.8619 68.3914 86.9669C69.5247 87.3498 70.6864 87.5844 71.8367 87.9303C72.2095 88.0278 72.5766 88.1494 72.936 88.2946C73.4728 88.5039 73.9392 88.8848 74.2742 89.3875C74.6092 89.8903 74.7972 90.4914 74.8137 91.1125C74.8303 91.7335 74.6745 92.3456 74.3668 92.8686C74.0591 93.3917 73.6138 93.8014 73.0891 94.0443C72.2894 94.44 71.4227 94.6494 70.5445 94.659C69.6663 94.6686 68.7959 94.4781 67.9891 94.0999C67.3256 93.7881 66.7658 93.2622 66.3848 92.5931C66.0039 91.924 65.8202 91.1438 65.8584 90.3574L66.5951 90.3574C66.7313 91.074 67.0258 91.7435 67.4531 92.3081C67.8803 92.8727 68.4274 93.3152 69.0469 93.5975C69.6664 93.8797 70.3397 93.9931 71.0085 93.9278C71.6773 93.8626 72.3214 93.6206 72.8851 93.2229C73.2285 93.0285 73.5135 92.7308 73.7063 92.3652C73.8991 91.9996 73.9917 91.5814 73.9731 91.1602C73.9901 90.7454 73.8826 90.3359 73.6668 89.9937C73.4511 89.6516 73.1388 89.3955 72.7774 89.2642C71.8934 88.906 70.9527 88.7146 70.0517 88.3996C69.1089 88.1132 68.1865 87.752 67.292 87.3189C65.8753 86.5593 65.762 83.5764 67.377 82.6253C68.2289 82.0861 69.1943 81.7965 70.1794 81.7845C71.1645 81.7726 72.1356 82.0389 72.9983 82.5573C73.4917 82.8783 73.8888 83.3486 74.1413 83.9111C74.3938 84.4736 74.4909 85.104 74.4207 85.7255V85.7255ZM25.0584 94.3104C24.7617 94.4328 24.4342 94.4326 24.1376 94.3097C23.8411 94.1868 23.5962 93.9498 23.4491 93.6434C22.5254 92.1366 21.5054 90.6976 20.525 89.2278L20.1 88.6102C18.9327 90.3147 17.7654 91.9513 16.7001 93.6497C16.5613 93.9425 16.3296 94.1703 16.0481 94.2907C15.7666 94.4112 15.4546 94.416 15.1701 94.3043L19.5504 87.9L15.476 82.1133C15.7692 81.9979 16.0901 81.9963 16.3843 82.1089C16.6786 82.2214 16.9282 82.4411 17.091 82.7309C18.0373 84.2378 19.0857 85.6767 20.1284 87.2021C21.1767 85.6891 22.2137 84.2439 23.1826 82.7494C23.3222 82.4613 23.554 82.2393 23.8341 82.1254C24.1141 82.0115 24.4227 82.0138 24.7013 82.1318L23.1203 84.4168C22.412 85.4358 21.715 86.461 20.9784 87.4553C20.919 87.5133 20.8715 87.5842 20.839 87.6635C20.8065 87.7427 20.7897 87.8286 20.7897 87.9154C20.7897 88.0023 20.8065 88.0881 20.839 88.1674C20.8715 88.2467 20.919 88.3176 20.9784 88.3755C22.3327 90.3332 23.6757 92.2971 25.0584 94.3104V94.3104ZM43.6563 82.0513L43.6563 82.9159C43.0832 82.8749 42.5085 82.9654 41.9695 83.1814C41.4304 83.3975 40.9389 83.7343 40.5267 84.1702C40.1144 84.6061 39.7906 85.1313 39.5762 85.712C39.3618 86.2927 39.2614 86.916 39.2817 87.5416L39.2818 94.3349L38.4714 94.3349L38.4713 82.1007L39.2646 82.1007L39.2647 84.6081C40.245 82.78 41.758 82.1007 43.6563 82.0513V82.0513ZM4.67536 87.8199C4.79435 87.2023 4.86801 86.5292 5.03234 85.8992C6.01263 82.1011 10.0076 80.5201 12.756 82.873C14.3653 84.2502 14.7677 86.2017 14.6884 88.4003L5.6217 88.4004C5.47441 92.3282 8.07543 94.6997 11.4018 93.4892C11.9413 93.2788 12.4243 92.9253 12.8072 92.4606C13.1901 91.9959 13.4607 91.4346 13.5947 90.8274C13.7704 90.2098 14.0537 90.1048 14.5921 90.2839C14.5034 91.0358 14.2595 91.7559 13.8787 92.3902C13.4979 93.0246 12.99 93.5565 12.3934 93.9462C11.4077 94.5337 10.2767 94.7665 9.16221 94.6112C8.04774 94.4559 7.00686 93.9205 6.18842 93.0816C5.37873 92.0895 4.88914 90.8359 4.79438 89.5121C4.79438 89.3021 4.72071 89.0921 4.68104 88.8945C4.67726 88.5281 4.67536 88.1699 4.67536 87.8199V87.8199ZM5.63302 87.5543L13.8327 87.5542C13.7817 84.7072 12.1326 82.6877 9.93397 82.6692C7.48597 82.6322 5.73499 84.6085 5.62736 87.542L5.63302 87.5543Z" fill="black"/>
</svg>
