<svg width="80" height="80" viewBox="0 0 86 86" fill="none" xmlns="http://www.w3.org/2000/svg">
<path d="M43.433 37.787C46.8438 37.787 49.6087 35.022 49.6087 31.6112C49.6087 28.2004 46.8436 25.4354 43.4329 25.4355C40.0221 25.4355 37.2571 28.2005 37.2571 31.6113C37.2572 35.0221 40.0222 37.7871 43.433 37.787Z" fill="#61DAFB"/>
<path d="M43.4332 54.3222C48.2809 59.037 53.0622 61.826 56.9138 61.8259C58.1755 61.8259 59.3708 61.5603 60.3669 60.9626C63.82 58.9704 65.0816 53.9899 63.8862 46.8844C63.687 45.6227 63.4214 44.361 63.0893 43.0329C64.4174 42.6344 65.6128 42.236 66.8081 41.8375C73.5151 39.2476 77.2338 35.6616 77.2337 31.7436C77.2337 27.7593 73.5149 24.1734 66.8078 21.65C65.6125 21.1852 64.4172 20.7868 63.0891 20.4548C63.4211 19.1266 63.6867 17.8649 63.8859 16.6032C65.0147 9.36489 63.753 4.31803 60.2998 2.32588C59.3037 1.72823 58.1084 1.46262 56.8467 1.46264C53.0615 1.46268 48.2139 4.2518 43.3663 8.9667C38.585 4.25192 33.8037 1.46291 29.9521 1.46296C28.6904 1.46297 27.4951 1.72861 26.499 2.32628C23.0459 4.31851 21.7843 9.29899 22.9797 16.4044C23.1789 17.6662 23.4445 18.9279 23.7766 20.256C22.4485 20.6545 21.2531 21.0529 20.0578 21.4514C13.3508 24.0413 9.63213 27.6273 9.63217 31.5452C9.63221 35.5296 13.351 39.1155 20.0581 41.6389C21.2534 42.1037 22.4487 42.5021 23.7768 42.8341C23.4448 44.1623 23.1792 45.424 22.98 46.6857C21.8512 53.7912 23.1129 58.838 26.4997 60.7638C27.4958 61.3614 28.6911 61.627 29.9528 61.627C33.8044 61.7598 38.5856 58.9707 43.4332 54.3222ZM39.7144 45.3574C40.9097 45.4238 42.1714 45.4238 43.4331 45.4237C44.6948 45.4237 45.9565 45.4237 47.1519 45.3573C45.9566 46.951 44.6949 48.412 43.4332 49.8065C42.1714 48.412 40.9097 46.9511 39.7144 45.3574V45.3574ZM31.4799 38.5176C32.144 39.6465 32.7416 40.709 33.4721 41.7715C31.4135 41.5059 29.4877 41.1739 27.6284 40.7755C28.226 38.9825 28.89 37.1231 29.6869 35.2637C30.2182 36.3262 30.8158 37.4551 31.4799 38.5176V38.5176ZM27.6282 22.5138C29.4875 22.1153 31.4133 21.7833 33.4719 21.5176C32.8079 22.5801 32.1438 23.6426 31.4798 24.7715C30.8157 25.9004 30.2181 26.963 29.6868 28.0919C28.8235 26.1661 28.1594 24.3067 27.6282 22.5138V22.5138ZM31.2806 31.6114C32.1439 29.8184 33.0735 28.0254 34.136 26.2324C35.1321 24.5059 36.261 22.7793 37.3899 21.0527C39.3821 20.9199 41.3742 20.8534 43.4328 20.8534C45.5578 20.8534 47.55 20.9198 49.4758 21.0526C50.6711 22.7791 51.7337 24.5057 52.7298 26.2322C53.7923 28.0252 54.722 29.8181 55.5853 31.6111C54.722 33.4041 53.7924 35.197 52.7299 36.99C51.7338 38.7166 50.6049 40.4432 49.476 42.1698C47.4839 42.3026 45.4917 42.369 43.4331 42.369C41.3081 42.3691 39.3159 42.3027 37.3901 42.1699C36.1948 40.4434 35.1322 38.7168 34.1361 36.9903C33.0736 35.1973 32.1439 33.4043 31.2806 31.6114V31.6114ZM57.2454 28.0251L55.4524 24.7048C54.7883 23.5759 54.1907 22.5135 53.4602 21.451C55.5188 21.7166 57.4446 22.0486 59.3039 22.447C58.7063 24.3064 58.0423 26.1657 57.2454 28.0251ZM57.2455 35.197C58.0424 37.0564 58.7065 38.9157 59.3041 40.7087C57.4448 41.1072 55.519 41.4392 53.4604 41.7049C54.1245 40.6424 54.7885 39.5799 55.4526 38.4509C56.0502 37.4548 56.6479 36.3259 57.2455 35.197ZM58.7731 58.24C58.2418 58.572 57.5778 58.7048 56.8473 58.7048C53.5934 58.7049 49.5426 56.0487 45.5582 52.0643C47.4839 50.0057 49.3433 47.6815 51.2026 45.0916C54.3237 44.826 57.312 44.3611 60.1011 43.697C60.4331 44.8923 60.6323 46.0876 60.8316 47.2829C61.7613 52.9274 61.0309 56.9782 58.7731 58.24V58.24ZM62.2258 23.2438C69.6634 25.3687 74.1126 28.6226 74.1126 31.6109C74.1127 34.2007 71.058 36.7906 65.6791 38.8493C64.6166 39.2477 63.4213 39.6462 62.226 39.9782C61.3627 37.2556 60.3002 34.4665 58.972 31.6111C60.3001 28.7556 61.429 25.9665 62.2258 23.2438ZM56.9131 4.51732C57.6436 4.51732 58.2412 4.65012 58.8389 4.98215C61.0303 6.24384 61.8272 10.2282 60.8976 15.9392C60.6984 17.0681 60.4328 18.2634 60.1672 19.5251C57.3781 18.9275 54.3898 18.4627 51.2687 18.1307C49.4757 15.5409 47.5499 13.2167 45.6241 11.1581C49.6085 7.24007 53.6592 4.51736 56.9131 4.51732V4.51732ZM47.1515 17.8651C45.9562 17.7987 44.6945 17.7987 43.4328 17.7987C42.1711 17.7987 40.9094 17.7988 39.7141 17.8652C40.9093 16.2714 42.171 14.8105 43.4328 13.4159C44.6945 14.8104 45.9562 16.3378 47.1515 17.8651ZM28.0928 4.98251C28.6241 4.65047 29.2881 4.51765 30.0186 4.51764C33.2725 4.5176 37.3233 7.17381 41.3077 11.1581C39.382 13.2168 37.5226 15.541 35.6633 18.1309C32.5422 18.3965 29.5539 18.8614 26.7648 19.5255C26.4328 18.3302 26.2336 17.1349 26.0343 15.9396C25.1046 10.295 25.835 6.31066 28.0928 4.98251V4.98251ZM24.6401 39.9786C17.2026 37.8537 12.7533 34.5999 12.7533 31.6116C12.7532 29.0218 15.8079 26.4319 21.1868 24.3732C22.2493 23.9748 23.4446 23.5763 24.6399 23.2443C25.5032 25.9669 26.5657 28.756 27.8939 31.6114C26.5658 34.4669 25.4369 37.3224 24.6401 39.9786V39.9786ZM26.0347 47.2833C26.2339 46.1544 26.4995 44.9591 26.7651 43.6974C29.5542 44.295 32.5425 44.7598 35.6636 45.0918C37.4566 47.6816 39.3824 50.0058 41.3082 52.0644C37.3238 55.9824 33.2731 58.7051 30.0192 58.7051C29.2887 58.7052 28.6911 58.5723 28.0934 58.2403C25.8356 56.9786 25.1051 52.9279 26.0347 47.2833V47.2833ZM23.2459 74.6427C24.7068 72.8497 24.7732 70.8575 23.9763 68.8654C23.1794 66.8732 21.5193 65.9435 19.4607 65.8771C17.0036 65.8108 14.4802 65.8772 12.0232 65.8772L11.5583 65.8772L11.5585 83.0765L13.5507 83.0764L13.5506 76.5686L16.6717 76.5686C17.0702 76.5686 17.4022 76.7014 17.6014 77.0334L21.5859 83.2091C21.6523 83.342 21.8515 83.5412 21.9843 83.5412L24.5741 83.5411C22.9804 81.0841 21.453 78.7599 19.8592 76.3693C21.2538 76.1701 22.4491 75.7052 23.2459 74.6427V74.6427ZM13.5506 74.51L13.5505 67.9358L14.281 67.9358C15.8084 67.9358 17.4021 67.8694 18.9294 68.0022C20.7224 68.0685 21.9842 69.463 21.9842 71.256C21.9842 73.049 20.5233 74.4435 18.7303 74.51C17.1366 74.5764 15.5428 74.51 13.5506 74.51V74.51ZM39.2498 75.373C38.1873 70.7246 33.9373 69.5293 30.6834 70.9903C28.16 72.1192 27.0311 74.3106 26.9647 77.0333C26.8983 79.0919 27.496 80.9513 29.0898 82.3458C30.8828 83.9395 33.0742 84.1387 35.332 83.7402C36.5937 83.4746 37.7226 82.8769 38.5859 81.9472C38.2538 81.4824 37.9218 81.0176 37.5897 80.6191C35.7304 82.2129 33.6718 82.7442 31.414 81.6817C29.953 80.9512 29.2225 79.1583 29.0897 77.8302L39.3827 77.83L39.3827 76.9668C39.4491 76.3691 39.3827 75.8378 39.2498 75.373V75.373ZM29.2225 76.4356C29.0233 74.4434 31.0154 72.3184 33.2068 72.3184C35.7303 72.252 37.324 73.7793 37.3905 76.4355L29.2225 76.4356ZM49.6092 70.658C48.6131 70.4588 47.5506 70.3924 46.5545 70.4589C44.9607 70.5917 43.5662 71.3222 42.4373 72.5175C42.7693 72.9823 43.035 73.4472 43.4334 73.9784C43.5662 73.8456 43.699 73.7128 43.8319 73.6464C44.8943 72.6503 46.1561 72.119 47.6834 72.2518C48.8787 72.3182 50.0076 72.7166 50.3397 73.9119C50.6053 74.8416 50.5389 75.8377 50.6053 76.8338C50.4061 76.8338 50.3397 76.7674 50.2733 76.701C48.6795 75.3729 46.8866 75.1073 44.9608 75.5722C43.1678 76.037 42.0389 77.4316 41.9061 79.2245C41.7733 81.2831 42.703 82.8105 44.496 83.5409C45.6249 84.0057 46.8867 84.0057 48.082 83.7401C49.0117 83.5409 49.4101 83.0096 50.7382 82.2791L50.7382 83.1424L52.5976 83.1424C52.5976 80.4861 52.6639 77.2322 52.5975 74.1775C52.5975 72.2518 51.4685 71.0565 49.6092 70.658ZM50.5389 79.0252C50.4725 79.2244 50.5389 79.4237 50.539 79.6229C50.539 81.0174 50.2069 81.4822 48.8788 82.0135C47.9491 82.3456 46.953 82.4784 45.957 82.1464C44.828 81.8143 44.0312 80.8183 44.0311 79.6894C43.9647 78.5604 44.6952 77.4315 45.8241 77.0995C47.3514 76.5682 48.746 76.9002 50.0077 77.8299C50.4061 78.1619 50.6718 78.494 50.5389 79.0252V79.0252ZM60.8983 72.4509C62.6248 71.9196 64.2186 72.2516 65.4139 73.7125L65.6131 73.8453C66.0779 73.4469 66.4764 73.0485 67.0076 72.5836C66.8084 72.3844 66.742 72.2516 66.6092 72.0524C64.6834 69.9938 60.8982 69.7282 58.574 71.3884C55.3201 73.7791 55.3866 78.4275 56.9804 80.8845C58.5077 83.2087 60.6992 84.0056 63.289 83.6735C64.8163 83.4743 66.078 82.7438 67.0741 81.482C66.6093 81.0836 66.1444 80.6852 65.6796 80.2203C65.5468 80.3532 65.4804 80.4196 65.414 80.5524C63.621 82.5446 60.6327 82.3454 59.039 80.2204C58.1093 78.9587 57.91 77.4978 58.1756 76.0368C58.3084 74.3767 59.1717 73.0485 60.8983 72.4509ZM74.7108 81.482C74.578 81.5484 74.5116 81.6148 74.5116 81.6148C73.9804 82.0132 73.4491 82.0796 72.8515 81.8804C72.2538 81.6148 72.1874 81.0835 72.121 80.5523L72.1209 72.982C72.1209 72.8492 72.1209 73.1148 72.1873 72.4507L74.7107 72.4507L74.7107 70.4585L72.0545 70.4586L72.0544 67.1382L70.0623 67.1383L70.0623 70.7242L68.3357 70.7242C68.2029 70.7242 68.0037 70.857 68.0037 70.9899C67.9373 71.4547 68.0037 71.7867 68.0037 72.4508L70.1287 72.4508L70.1288 80.9508C70.1288 82.0133 70.3945 82.9429 71.3242 83.4742C72.3203 84.0718 74.246 83.939 75.1093 83.2085C75.2421 83.1421 75.3085 82.8765 75.3085 82.8101C75.1093 82.4116 74.9101 81.9468 74.7108 81.482V81.482Z" fill="#61DAFB"/>
</svg>
