<svg width="80" height="80" viewBox="0 0 86 86" fill="none" xmlns="http://www.w3.org/2000/svg">
<path d="M43.1851 17.8912C31.8515 17.8914 24.7707 23.5559 21.9352 34.8895C26.1839 29.2243 31.1437 27.0999 36.8088 28.5163C40.0435 29.3224 42.3551 31.6679 44.9151 34.267C49.0815 38.495 53.904 43.3898 64.4353 43.3896C75.7682 43.3895 82.8497 37.7243 85.6852 26.3881C81.4359 32.0566 76.4767 34.1809 70.8109 32.7646C67.5769 31.9578 65.2679 29.613 62.7046 27.0139C58.5409 22.7858 53.7197 17.8911 43.1851 17.8912V17.8912ZM21.9353 43.3901C10.6025 43.3903 3.52095 49.0555 0.685529 60.3917C4.93414 54.7232 9.89333 52.5988 15.5591 54.0152C18.7938 54.822 21.1054 57.1668 23.6654 59.7659C27.8318 63.9939 32.6543 68.8887 43.1856 68.8886C54.5185 68.8884 61.6 63.2239 64.4354 51.8903C60.1862 57.5555 55.227 59.6799 49.5612 58.2635C46.3272 57.4574 44.0182 55.1119 41.4549 52.5128C37.2912 48.2848 32.47 43.39 21.9353 43.3901Z" fill="#38B2AC"/>
</svg>
