<svg width="50" height="50" viewBox="0 0 50 50" fill="none" xmlns="http://www.w3.org/2000/svg">
<rect width="50" height="50" fill="#A4C6C4"/>
<path d="M8.26562 17.582H8.28906C8.77344 17.5508 9.39844 17.5352 10.1641 17.5352C11.3516 17.5352 12.2578 17.9023 12.8828 18.6367C13.5156 19.3711 13.832 20.3242 13.832 21.4961C13.832 22.6836 13.543 23.7148 12.9648 24.5898C12.3945 25.457 11.5 25.8906 10.2812 25.8906C9.5625 25.8906 8.85156 25.8008 8.14844 25.6211C8.14844 22.8711 8.1875 20.1914 8.26562 17.582ZM13.3516 21.4961C13.3516 20.4883 13.0469 19.6406 12.4375 18.9531C11.8359 18.2656 11.0391 17.9609 10.0469 18.0391C9.98438 21.0469 9.95312 23.457 9.95312 25.2695C10.1094 25.3164 10.3477 25.3555 10.668 25.3867C11.582 25.2852 12.2578 24.8555 12.6953 24.0977C13.1328 23.3398 13.3516 22.4727 13.3516 21.4961ZM6.01562 32.3945C6 32.9727 5.09375 33.3477 3.29688 33.5195C3.23438 33.6445 3.23438 33.8281 3.29688 34.0703C4.625 34.0234 5.98828 34 7.38672 34C9.05078 34 10.6484 34.0234 12.1797 34.0703C12.2422 33.9453 12.2422 33.7617 12.1797 33.5195C9.58594 33.3633 8.28125 32.9883 8.26562 32.3945C8.1875 30.1992 8.14844 28.2383 8.14844 26.5117C9.03125 26.6914 9.84766 26.7812 10.5977 26.7812C11.8789 29.1641 13.5664 31.5703 15.6602 34C16.0586 34 16.6328 34.0039 17.3828 34.0117C18.1406 34.0195 18.8203 34.0273 19.4219 34.0352C20.0312 34.043 20.6094 34.0547 21.1562 34.0703C21.2188 33.9297 21.2188 33.7461 21.1562 33.5195C19.875 33.4258 18.793 33.1133 17.9102 32.582C17.0352 32.043 16.0117 31.0508 14.8398 29.6055C14.043 28.5977 13.3242 27.5352 12.6836 26.418C13.8398 26.0352 14.75 25.3984 15.4141 24.5078C16.0781 23.6172 16.4102 22.6133 16.4102 21.4961C16.4102 20.0898 15.957 18.9531 15.0508 18.0859C14.1445 17.2109 12.8906 16.7734 11.2891 16.7734C6.00781 16.8359 3.35156 16.8359 3.32031 16.7734C3.27344 16.9609 3.27344 17.1445 3.32031 17.3242C5.11719 17.4961 6.02344 17.8711 6.03906 18.4492C6.11719 20.2852 6.15625 22.4688 6.15625 25C6.15625 27.4766 6.10938 29.9414 6.01562 32.3945ZM5.53516 32.3711C5.62891 30.418 5.67578 27.9609 5.67578 25C5.67578 22.4844 5.63672 20.3086 5.55859 18.4727C5.54297 18.1836 4.67188 17.9531 2.94531 17.7812C2.8125 17.2656 2.82812 16.7617 2.99219 16.2695C3.85156 16.3164 4.78516 16.3398 5.79297 16.3398C6.80078 16.3398 7.95703 16.332 9.26172 16.3164C10.5664 16.3008 11.5234 16.293 12.1328 16.293C14.0234 16.293 15.5078 16.7734 16.5859 17.7344C17.6641 18.6875 18.2031 19.9414 18.2031 21.4961C18.2031 22.5977 17.8867 23.6133 17.2539 24.543C16.6211 25.4727 15.7695 26.1758 14.6992 26.6523C15.2305 27.5195 15.8477 28.4102 16.5508 29.3242C17.3789 30.4258 18.1914 31.3008 18.9883 31.9492C19.793 32.5977 20.6836 32.9688 21.6602 33.0625C21.7852 33.5625 21.7695 34.0664 21.6133 34.5742C20.4961 34.543 18.4414 34.5117 15.4492 34.4805C13.2539 31.918 11.5391 29.5117 10.3047 27.2617H9.95312C9.95312 28.7148 9.99219 30.418 10.0703 32.3711C10.0703 32.418 10.0898 32.4648 10.1289 32.5117C10.168 32.5586 10.3203 32.6328 10.5859 32.7344C10.8516 32.8359 11.2539 32.9258 11.793 33.0039C12.3398 33.0742 12.6445 33.1172 12.707 33.1328C12.8398 33.5703 12.8164 34.0508 12.6367 34.5742C9.75391 34.5117 8.00391 34.4805 7.38672 34.4805C6.96484 34.4805 5.49219 34.5117 2.96875 34.5742C2.77344 34.0352 2.77344 33.5312 2.96875 33.0625C4.66406 32.8906 5.51953 32.6602 5.53516 32.3711ZM29.3594 17.7812C28.9609 17.7969 28.7266 17.8906 28.6562 18.0625C28.5859 18.2266 28.6367 18.5234 28.8086 18.9531L32.418 27.8359L33.8477 23.9922L31.832 18.9297C31.6602 18.5156 31.4492 18.2305 31.1992 18.0742C30.9492 17.9102 30.5547 17.8125 30.0156 17.7812C29.8203 17.2812 29.8203 16.8164 30.0156 16.3867H38.2891C38.4844 16.8164 38.4844 17.2812 38.2891 17.7812C37.4453 17.8125 36.8945 17.9297 36.6367 18.1328C36.3789 18.3281 36.3164 18.6016 36.4492 18.9531L39.8008 27.7656L43.0938 18.9531C43.25 18.5234 43.1953 18.2383 42.9297 18.0977C42.6719 17.9492 42.1484 17.8438 41.3594 17.7812C41.1719 17.2812 41.1719 16.8164 41.3594 16.3867H48.3203C48.5156 16.8164 48.5156 17.2812 48.3203 17.7812C47.1406 17.8594 46.3828 17.9766 46.0469 18.1328C45.6953 18.3125 45.4453 18.5859 45.2969 18.9531L39.2969 34.8203H38.1016L34.9609 26.7227L31.9023 34.8203H30.7305L24.1797 18.9531C24.0234 18.5703 23.7461 18.3008 23.3477 18.1445C22.957 17.9805 22.3711 17.8594 21.5898 17.7812C21.3945 17.2812 21.3945 16.8164 21.5898 16.3867H29.3594C29.5547 16.8164 29.5547 17.2812 29.3594 17.7812ZM28.9609 16.7734H22C21.8984 16.9297 21.8984 17.1133 22 17.3242C23.4062 17.4648 24.2773 17.9453 24.6133 18.7656L31.0469 34.3398H31.5742L34.9023 25.4102L38.4414 34.3398H38.9688L44.9219 18.6133C45.0938 18.168 45.4062 17.8594 45.8594 17.6875C46.3203 17.5078 46.9727 17.3867 47.8164 17.3242C47.918 17.1133 47.918 16.9297 47.8164 16.7734H41.8633C41.7695 16.9297 41.7695 17.1133 41.8633 17.3242C42.793 17.4336 43.3633 17.5781 43.5742 17.7578C43.832 17.9609 43.8867 18.2461 43.7383 18.6133L39.1797 30.8828L34.5508 18.7656C34.3711 18.3438 34.5547 18.0156 35.1016 17.7812C35.6484 17.5391 36.543 17.3867 37.7852 17.3242C37.8867 17.1133 37.8867 16.9297 37.7852 16.7734H30.4258C30.3242 16.9297 30.3242 17.1133 30.4258 17.3242C30.918 17.3711 31.3047 17.5 31.5859 17.7109C31.8672 17.9141 32.1016 18.2656 32.2891 18.7656L34.3516 23.9922L31.7852 30.8828L26.8633 18.7656C26.5977 18.2344 26.625 17.8828 26.9453 17.7109C27.2656 17.5312 27.9375 17.4023 28.9609 17.3242C29.0547 17.1133 29.0547 16.9297 28.9609 16.7734Z" fill="#36474A"/>
</svg>

