<svg width="376" height="300" viewBox="0 0 376 300" fill="none" xmlns="http://www.w3.org/2000/svg">
<path fill-rule="evenodd" clip-rule="evenodd" d="M320.121 54.115L116.359 3.31098C78.848 -6.04202 42.067 11.931 34.208 43.453L2.18878 171.874C-5.67062 203.397 18.3673 236.532 55.879 245.885L259.641 296.689C297.152 306.041 333.933 288.069 341.792 256.547L373.811 128.125C381.671 96.603 357.633 63.467 320.121 54.115ZM110.703 25.999L314.465 76.803C332.554 81.344 345.953 95.363 347.364 111.225L199.446 159.068C195.219 161.076 190.074 161.444 185.203 160.086C180.332 158.729 176.157 155.763 173.645 151.877L65.797 41.174C74.381 27.851 92.642 21.68 110.703 25.999ZM29.187 178.606C24.452 197.598 38.935 217.562 61.536 223.197L265.298 274.001C287.852 279.541 309.903 268.71 314.624 249.773L343.192 135.193L209.939 177.749C201.12 181.683 190.612 182.474 180.529 179.965C170.083 177.211 160.887 171.3 154.726 163.377L57.898 63.455L29.187 178.606Z" fill="#A4C6C4"/>
</svg>
