<svg width="311" height="222" viewBox="0 0 311 222" fill="none" xmlns="http://www.w3.org/2000/svg">
<path fill-rule="evenodd" clip-rule="evenodd" d="M68.85 0.5H241.21C280.48 1.478 311.25 25.324 310.03 53.825V127.175C310.62 140.94 303.62 154.305 290.59 164.314C277.55 174.322 259.56 180.147 240.59 180.5H93.0301C82.8201 180.653 73.14 183.822 66.22 189.275L29.485 217.737C26.373 220.201 22 221.625 17.395 221.675C12.639 221.587 8.12904 220.123 4.86904 217.609C1.60804 215.094 -0.132002 211.738 0.034998 208.287V53.825C-1.184 25.324 29.591 1.478 68.85 0.5ZM241.21 163.625C267.64 162.654 288.01 146.359 286.78 127.175V53.825C288.01 34.641 267.64 18.346 241.21 17.375H68.85C42.43 18.346 22.056 34.641 23.285 53.825V197.825L48.55 177.8C60.1 168.879 76.1701 163.761 93.0301 163.625H241.21Z" fill="#A4C6C4"/>
<path d="M96.91 76.438H174.41C180.83 76.438 186.03 72.66 186.03 68C186.03 63.34 180.83 59.562 174.41 59.562H96.91C90.49 59.562 85.28 63.34 85.28 68C85.28 72.66 90.49 76.438 96.91 76.438Z" fill="#A4C6C4"/>
<path d="M213.16 104.562H96.91C90.49 104.562 85.28 108.34 85.28 113C85.28 117.66 90.49 121.438 96.91 121.438H213.16C219.58 121.438 224.78 117.66 224.78 113C224.78 108.34 219.58 104.562 213.16 104.562Z" fill="#A4C6C4"/>
</svg>
