<svg width="400" height="400" viewBox="0 0 188 186" fill="none" xmlns="http://www.w3.org/2000/svg">
<circle cx="94" cy="93" r="31" stroke="#A4C6C4" stroke-width="10"/>
<path d="M48.1667 30.1011C61.2319 38.3515 78.5282 31.1871 81.9328 16.1148C84.8378 3.25422 103.162 3.25422 106.067 16.1148C109.472 31.1871 126.768 38.3515 139.833 30.1011C150.981 23.0615 163.939 36.0188 156.899 47.1667C148.649 60.2319 155.813 77.5282 170.885 80.9328C183.746 83.8378 183.746 102.162 170.885 105.067C155.813 108.472 148.649 125.768 156.899 138.833C163.939 149.981 150.981 162.939 139.833 155.899C126.768 147.649 109.472 154.813 106.067 169.885C103.162 182.746 84.8378 182.746 81.9328 169.885C78.5282 154.813 61.2319 147.649 48.1667 155.899C37.0188 162.938 24.0615 149.981 31.1012 138.833C39.3515 125.768 32.1871 108.472 17.1148 105.067C4.25422 102.162 4.25422 83.8378 17.1148 80.9328C32.1871 77.5282 39.3515 60.2319 31.1011 47.1667C24.0615 36.0188 37.0188 23.0615 48.1667 30.1011Z" stroke="#A4C6C4" stroke-width="10"/>
</svg>
