<svg width="45" height="45" viewBox="0 0 45 45" fill="none" xmlns="http://www.w3.org/2000/svg">
<path fill-rule="evenodd" clip-rule="evenodd" d="M22.5 0.531555C14.2407 0.531555 7.54272 7.22777 7.54272 15.4888C7.54272 22.0971 11.8283 27.7038 17.7714 29.6814C18.5189 29.8199 18.7934 29.3569 18.7934 28.9617C18.7934 28.6052 18.7794 27.4268 18.773 26.1773C14.6116 27.0819 13.7337 24.4125 13.7337 24.4125C13.0535 22.6835 12.073 22.2237 12.073 22.2237C10.7159 21.2955 12.1749 21.3145 12.1749 21.3145C13.6771 21.42 14.4682 22.8561 14.4682 22.8561C15.802 25.1427 17.9673 24.4814 18.8205 24.0993C18.9551 23.1325 19.3426 22.4722 19.7704 22.0989C16.4482 21.7209 12.9557 20.4381 12.9557 14.7069C12.9557 13.0739 13.54 11.7397 14.497 10.6921C14.3416 10.3152 13.8297 8.79363 14.6418 6.73347C14.6418 6.73347 15.8976 6.33199 18.7551 8.26734C19.9487 7.93581 21.2283 7.76952 22.4992 7.7639C23.7705 7.76988 25.0509 7.93617 26.2462 8.26734C29.1009 6.33234 30.3553 6.73382 30.3553 6.73382C31.1695 8.79398 30.6576 10.3152 30.5022 10.6924C31.4613 11.7394 32.0414 13.0739 32.0414 14.7073C32.0414 20.4518 28.5423 21.7167 25.2116 22.0866C25.748 22.5506 26.2262 23.4612 26.2262 24.8569C26.2262 26.858 26.2093 28.4685 26.2093 28.961C26.2093 29.3583 26.4786 29.8251 27.2366 29.6782C33.1766 27.6982 37.4565 22.0936 37.4565 15.4874C37.4572 7.22812 30.7606 0.531555 22.5 0.531555Z" fill="#181616"/>
<path d="M13.2082 22.0064C13.1748 22.0809 13.0577 22.1031 12.9516 22.0521C12.8426 22.0029 12.7821 21.902 12.8173 21.8271C12.8489 21.7511 12.9663 21.7297 13.075 21.7807C13.1839 21.8299 13.2458 21.9319 13.2085 22.0064H13.2082ZM13.8139 22.6828C13.7426 22.7485 13.603 22.7179 13.5081 22.6132C13.4103 22.5088 13.3921 22.3692 13.4645 22.3024C13.5376 22.2363 13.673 22.2672 13.7703 22.3717C13.8688 22.4771 13.8881 22.6153 13.8136 22.6824L13.8139 22.6828ZM14.4035 23.5434C14.3121 23.6074 14.162 23.5476 14.0695 23.4144C13.9774 23.2819 13.9774 23.1226 14.0713 23.0583C14.1641 22.9943 14.3118 23.0519 14.4053 23.1838C14.4974 23.3191 14.4974 23.4791 14.4035 23.5438V23.5434ZM15.2114 24.3759C15.1295 24.4663 14.9548 24.442 14.8271 24.3186C14.6964 24.198 14.6601 24.0268 14.7421 23.9365C14.8254 23.8461 15.0008 23.8714 15.1295 23.9938C15.2596 24.114 15.2989 24.2856 15.2114 24.3756V24.3759ZM16.3266 24.859C16.29 24.9764 16.1219 25.0295 15.9525 24.9799C15.783 24.9286 15.6726 24.7915 15.7064 24.6733C15.7416 24.5552 15.911 24.5 16.0815 24.5531C16.2503 24.6037 16.361 24.7394 16.3262 24.859H16.3266ZM17.55 24.9486C17.5546 25.0717 17.4108 25.1743 17.2329 25.1764C17.0543 25.1806 16.9094 25.0808 16.9073 24.9592C16.9073 24.8347 17.048 24.7335 17.2266 24.7306C17.4044 24.7271 17.55 24.8263 17.55 24.9486ZM18.6891 24.7549C18.7102 24.8751 18.5871 24.9989 18.4103 25.0316C18.2366 25.0639 18.0763 24.9894 18.0538 24.8699C18.0327 24.7468 18.1582 24.6238 18.3315 24.5914C18.5084 24.5605 18.6666 24.6329 18.6891 24.7552V24.7549Z" fill="#181616"/>
<path d="M8.73813 38.0749H4.97641C4.92979 38.0749 4.88508 38.0934 4.85212 38.1264C4.81915 38.1594 4.80063 38.2041 4.80063 38.2507V40.0901C4.80063 40.1367 4.81915 40.1814 4.85212 40.2144C4.88508 40.2473 4.92979 40.2659 4.97641 40.2659H6.44348V42.551C6.44348 42.551 6.11407 42.6635 5.20247 42.6635C4.12809 42.6635 2.62657 42.2712 2.62657 38.9693C2.62657 35.6671 4.19032 35.2322 5.65844 35.2322C6.92899 35.2322 7.47602 35.4558 7.82477 35.5637C7.93376 35.5968 8.03571 35.4878 8.03571 35.3907L8.45512 33.6136C8.4558 33.587 8.45001 33.5606 8.43826 33.5367C8.4265 33.5128 8.40913 33.4922 8.38762 33.4765C8.24594 33.3752 7.38321 32.8929 5.20317 32.8929C2.69161 32.8929 0.115356 33.9609 0.115356 39.098C0.115356 44.2343 3.06497 44.9996 5.55051 44.9996C7.60856 44.9996 8.85696 44.12 8.85696 44.12C8.90829 44.0919 8.91391 44.0198 8.91391 43.9864V38.2503C8.91391 38.2037 8.89539 38.159 8.86243 38.126C8.82946 38.0931 8.78475 38.0746 8.73813 38.0746V38.0749ZM27.9514 33.3316H25.8329C25.8097 33.3317 25.7869 33.3364 25.7656 33.3453C25.7442 33.3543 25.7249 33.3673 25.7086 33.3837C25.6924 33.4002 25.6795 33.4196 25.6708 33.441C25.6621 33.4624 25.6576 33.4854 25.6578 33.5085L25.6585 37.6021H22.3566V33.5085C22.3567 33.4854 22.3523 33.4625 22.3436 33.4411C22.3349 33.4197 22.3221 33.4003 22.3059 33.3839C22.2896 33.3674 22.2703 33.3544 22.2491 33.3454C22.2278 33.3365 22.205 33.3318 22.1819 33.3316H20.0637C20.0406 33.3317 20.0177 33.3364 19.9964 33.3453C19.9751 33.3543 19.9558 33.3673 19.9395 33.3837C19.9232 33.4002 19.9104 33.4196 19.9016 33.441C19.8929 33.4624 19.8885 33.4854 19.8886 33.5085V44.5932C19.8886 44.6906 19.9674 44.7701 20.0637 44.7701H22.1819C22.205 44.7699 22.2279 44.7652 22.2492 44.7563C22.2704 44.7473 22.2898 44.7342 22.306 44.7177C22.3222 44.7013 22.335 44.6818 22.3437 44.6603C22.3524 44.6389 22.3568 44.616 22.3566 44.5929V39.8517H25.6585L25.6529 44.5929C25.6529 44.6906 25.7316 44.7701 25.8286 44.7701H27.9514C27.9745 44.7699 27.9973 44.7652 28.0186 44.7563C28.0399 44.7473 28.0593 44.7342 28.0755 44.7177C28.0917 44.7013 28.1045 44.6818 28.1132 44.6603C28.1219 44.6389 28.1263 44.616 28.1261 44.5929V33.5081C28.1263 33.485 28.122 33.4621 28.1133 33.4407C28.1046 33.4193 28.0918 33.3998 28.0756 33.3834C28.0593 33.367 28.04 33.354 28.0186 33.3451C27.9973 33.3362 27.9745 33.3316 27.9514 33.3316V33.3316ZM11.3696 33.5837C10.6158 33.5837 10.0041 34.2 10.0041 34.9629C10.0041 35.7247 10.6158 36.3428 11.3696 36.3428C12.124 36.3428 12.7354 35.7247 12.7354 34.9629C12.7354 34.2 12.1237 33.5837 11.3696 33.5837ZM12.4088 36.9615H10.2973C10.2003 36.9615 10.1138 37.0614 10.1138 37.1584V44.4892C10.1138 44.7047 10.2481 44.7687 10.4218 44.7687H12.3237C12.5329 44.7687 12.5839 44.666 12.5839 44.4857V37.1384C12.584 37.1153 12.5795 37.0924 12.5708 37.071C12.562 37.0497 12.5491 37.0302 12.5329 37.0139C12.5166 36.9975 12.4973 36.9844 12.476 36.9755C12.4547 36.9666 12.4319 36.962 12.4088 36.9619V36.9615ZM36.1765 36.978H34.0742C34.0511 36.9782 34.0283 36.983 34.007 36.992C33.9858 37.001 33.9665 37.0141 33.9503 37.0305C33.9341 37.047 33.9213 37.0665 33.9127 37.0879C33.904 37.1093 33.8996 37.1321 33.8998 37.1552V42.5904C33.8998 42.5904 33.3654 42.9806 32.6078 42.9806C31.8502 42.9806 31.6491 42.6371 31.6491 41.895V37.1552C31.6493 37.1321 31.6449 37.1092 31.6362 37.0878C31.6275 37.0664 31.6147 37.0469 31.5985 37.0304C31.5823 37.0139 31.5629 37.0008 31.5417 36.9919C31.5204 36.9829 31.4975 36.9782 31.4744 36.978H29.3411C29.2944 36.9784 29.2498 36.9973 29.217 37.0305C29.1842 37.0637 29.1658 37.1085 29.166 37.1552V42.2536C29.166 44.4579 30.3947 44.9972 32.0847 44.9972C33.4713 44.9972 34.5892 44.2308 34.5892 44.2308C34.5892 44.2308 34.642 44.6351 34.6666 44.6825C34.6912 44.7303 34.7534 44.7785 34.8213 44.7785L36.1783 44.7725C36.2015 44.7724 36.2244 44.7678 36.2458 44.7588C36.2671 44.7499 36.2866 44.7368 36.3029 44.7203C36.3192 44.7039 36.3321 44.6844 36.3409 44.6629C36.3497 44.6415 36.3542 44.6185 36.3541 44.5953L36.353 37.1542C36.3528 37.1075 36.3343 37.0629 36.3014 37.0298C36.2685 36.9968 36.2239 36.9781 36.1772 36.9777L36.1765 36.978ZM41.9218 36.7291C40.7279 36.7291 39.9158 37.2618 39.9158 37.2618V33.5081C39.9159 33.485 39.9115 33.4621 39.9028 33.4408C39.8941 33.4194 39.8812 33.3999 39.865 33.3835C39.8488 33.3671 39.8295 33.354 39.8082 33.3451C39.7869 33.3361 39.7641 33.3314 39.741 33.3313H37.6172C37.5941 33.3313 37.5711 33.3359 37.5497 33.3448C37.5283 33.3537 37.5089 33.3667 37.4926 33.3831C37.4762 33.3996 37.4633 33.4191 37.4545 33.4405C37.4458 33.462 37.4413 33.4849 37.4415 33.5081V44.5929C37.4413 44.6161 37.4458 44.639 37.4545 44.6605C37.4633 44.6819 37.4762 44.7014 37.4926 44.7179C37.5089 44.7343 37.5283 44.7473 37.5497 44.7562C37.5711 44.7651 37.5941 44.7697 37.6172 44.7697H39.091C39.1578 44.7697 39.2077 44.7356 39.2446 44.6755C39.2808 44.6157 39.3339 44.1643 39.3339 44.1643C39.3339 44.1643 40.2023 44.987 41.8469 44.987C43.777 44.987 44.8844 44.0082 44.8844 40.5918C44.8844 37.1753 43.116 36.7288 41.9214 36.7288L41.9218 36.7291ZM41.0921 42.9743C40.3633 42.9521 39.8686 42.6213 39.8686 42.6213V39.111C39.8686 39.111 40.3566 38.8121 40.955 38.758C41.7119 38.6902 42.4414 38.919 42.4414 40.7246C42.4414 42.6291 42.1127 43.0049 41.0924 42.9739L41.0921 42.9743ZM18.7014 42.9328C18.609 42.9328 18.372 42.9704 18.1284 42.9704C17.3479 42.9704 17.0832 42.6076 17.0832 42.1379V39.021H18.6722C18.6954 39.021 18.7184 39.0164 18.7398 39.0075C18.7612 38.9985 18.7807 38.9855 18.797 38.969C18.8134 38.9525 18.8263 38.933 18.835 38.9115C18.8438 38.89 18.8482 38.867 18.848 38.8438V37.1366C18.8481 37.1135 18.8436 37.0905 18.8348 37.0691C18.826 37.0477 18.8131 37.0282 18.7968 37.0118C18.7804 36.9954 18.761 36.9824 18.7397 36.9736C18.7183 36.9647 18.6954 36.9601 18.6722 36.9601H17.0832L17.0807 34.8613C17.0807 34.7815 17.0399 34.7418 16.9478 34.7418H14.7822C14.6985 34.7418 14.6532 34.779 14.6532 34.8595V37.0287C14.6532 37.0287 13.5679 37.2906 13.4948 37.3117C13.4583 37.3223 13.4262 37.3445 13.4034 37.375C13.3805 37.4054 13.3682 37.4424 13.3682 37.4804V38.8434C13.3681 38.8665 13.3725 38.8894 13.3812 38.9108C13.3899 38.9322 13.4027 38.9516 13.4189 38.968C13.4352 38.9845 13.4545 38.9975 13.4757 39.0065C13.497 39.0154 13.5199 39.0201 13.5429 39.0203H14.6532V42.2996C14.6532 44.736 16.3618 44.975 17.5149 44.975C18.0412 44.975 18.6715 44.8063 18.7756 44.7676C18.8389 44.7441 18.8751 44.679 18.8751 44.6084L18.8765 43.1089C18.8758 43.0625 18.857 43.0181 18.8243 42.9852C18.7915 42.9523 18.7472 42.9334 18.7007 42.9325L18.7014 42.9328Z" fill="#100E0F"/>
</svg>



