<svg width="45" height="45" viewBox="0 0 45 45" fill="none" xmlns="http://www.w3.org/2000/svg">
<path d="M40.7812 1.05467H4.21875C3.38917 1.04622 2.59013 1.36722 1.99694 1.94722C1.40376 2.52723 1.06489 3.31886 1.05469 4.14842V40.8586C1.06673 41.6869 1.40641 42.4767 1.9994 43.0552C2.59238 43.6337 3.39037 43.9537 4.21875 43.9453H40.7812C41.6109 43.9519 42.4094 43.6298 43.0023 43.0494C43.5951 42.4691 43.9342 41.6776 43.9453 40.848V4.13787C43.9305 3.31074 43.5899 2.52289 42.9974 1.94555C42.4049 1.36821 41.6085 1.04805 40.7812 1.05467V1.05467Z" fill="#0076B2"/>
<path d="M7.40396 17.1317H13.7708V37.6172H7.40396V17.1317ZM10.5891 6.93634C11.3194 6.93634 12.0332 7.15293 12.6403 7.5587C13.2474 7.96447 13.7206 8.5412 13.9999 9.21592C14.2792 9.89064 14.352 10.633 14.2093 11.3492C14.0666 12.0654 13.7147 12.7231 13.1981 13.2392C12.6815 13.7553 12.0234 14.1066 11.3071 14.2487C10.5908 14.3907 9.84849 14.3171 9.17404 14.0372C8.49958 13.7572 7.9233 13.2835 7.51811 12.676C7.11292 12.0685 6.89701 11.3545 6.89771 10.6242C6.89864 9.64582 7.28796 8.7078 7.98014 8.01628C8.67231 7.32477 9.6107 6.93634 10.5891 6.93634ZM17.7645 17.1317H23.8676V19.9442H23.952C24.8028 18.334 26.877 16.6359 29.9743 16.6359C36.4219 16.6219 37.6172 20.8652 37.6172 26.3672V37.6172H31.2504V27.6504C31.2504 25.2774 31.2083 22.2223 27.9422 22.2223C24.6762 22.2223 24.1208 24.8098 24.1208 27.4957V37.6172H17.7645V17.1317Z" fill="white"/>
</svg>
