<svg width="50" height="50" viewBox="0 0 50 50" fill="none" xmlns="http://www.w3.org/2000/svg">
<path d="M3.125 18.6806C3.125 13.2356 3.125 10.5131 4.18466 8.43343C5.11676 6.60407 6.60407 5.11676 8.43343 4.18466C10.5131 3.125 13.2356 3.125 18.6806 3.125H31.3194C36.7644 3.125 39.4869 3.125 41.5666 4.18466C43.3959 5.11676 44.8832 6.60407 45.8153 8.43343C46.875 10.5131 46.875 13.2356 46.875 18.6806V31.3194C46.875 36.7644 46.875 39.4869 45.8153 41.5666C44.8832 43.3959 43.3959 44.8832 41.5666 45.8153C39.4869 46.875 36.7644 46.875 31.3194 46.875H18.6806C13.2356 46.875 10.5131 46.875 8.43343 45.8153C6.60407 44.8832 5.11676 43.3959 4.18466 41.5666C3.125 39.4869 3.125 36.7644 3.125 31.3194V18.6806Z" fill="white"/>
<path d="M34.4551 13.3171L25.1003 20.6178L15.5316 13.3171V13.3191L15.5431 13.3289V23.5518L24.9924 31.0103L34.4551 23.8399V13.3171Z" fill="#EA4335"/>
<path d="M36.9117 11.5412L34.455 13.3171V23.8399L42.1855 17.9046V14.3293C42.1855 14.3293 41.2471 9.22278 36.9117 11.5412Z" fill="#FBBC05"/>
<path d="M34.455 23.8401V37.4884H40.38C40.38 37.4884 42.066 37.3147 42.1874 35.3929V17.9049L34.455 23.8401Z" fill="#34A853"/>
<path d="M15.5436 37.4999V23.5517L15.5316 23.5418L15.5436 37.4999Z" fill="#C5221F"/>
<path d="M15.5315 13.3192L13.0882 11.5532C8.7528 9.23477 7.8125 14.3393 7.8125 14.3393V17.9147L15.5315 23.5421V13.3192Z" fill="#C5221F"/>
<path d="M15.5316 13.319V23.5419L15.5436 23.5518V13.3289L15.5316 13.319Z" fill="#C5221F"/>
<path d="M7.8125 17.9165V35.4045C7.93196 37.3284 9.61989 37.5 9.61989 37.5H15.5449L15.5315 23.542L7.8125 17.9165Z" fill="#4285F4"/>
</svg>

